<svg width="151" height="305" viewBox="0 0 151 305" fill="none" xmlns="http://www.w3.org/2000/svg">
<path d="M133.246 122.027H97.7723L80.0183 152.603L97.7723 183.181H133.246L151 152.603L133.246 122.027ZM98.0314 122.509H132.955L150.417 152.603L132.955 182.697H98.0314L80.5687 152.603L98.0314 122.509Z" fill="#FFFFF8"/>
<path d="M79.7374 30.2971H44.2627L26.5093 60.8748L44.2627 91.4504H79.7374L97.4909 60.8748L79.7374 30.2971ZM44.5218 30.7811H79.4462L96.9062 60.8748L79.4462 90.9664H44.5218L27.0618 60.8748L44.5218 30.7811Z" fill="#FFFFF8"/>
<path d="M26.2276 60.8738H-9.24603L-27 91.4675L-9.24603 122.027H26.2276L43.9816 91.4675L26.2276 60.8738ZM-8.9869 61.3575H25.9364L43.3991 91.4355L25.9364 121.511H-8.9869L-26.4496 91.4675L-8.9869 61.3575Z" fill="#FFFFF8"/>
<path d="M79.7374 91.4504H44.2627L26.5093 122.026L44.2627 152.604H79.7374L97.4909 122.026L79.7374 91.4504ZM44.5218 91.9344H79.4462L96.9062 122.026L79.4462 152.154H44.5218L27.0618 122.06L44.5218 91.9344Z" fill="#FFFFF8"/>
<path d="M79.7374 213.757H44.2627L26.5093 244.334L44.2627 274.911H79.7374L97.4909 244.334L79.7374 213.757ZM44.5218 214.241H79.4462L96.9062 244.334L79.4462 274.427H44.5218L27.0618 244.334L44.5218 214.241Z" fill="#FFFFF8"/>
<path d="M26.2517 183.181H-9.238L-27 213.772L-9.238 244.334H26.2517L43.9816 213.772L26.2517 183.181ZM-8.97874 183.662H25.9603L43.431 213.74L25.9603 243.818H-8.97874L-26.4494 213.772L-8.97874 183.662Z" fill="#FFFFF8"/>
<path d="M26.2517 243.481H-9.238L-27 274.072L-9.238 304.634H26.2517L43.9816 274.072L26.2517 243.481ZM-8.97874 243.962H25.9603L43.431 274.04L25.9603 304.118H-8.97874L-26.4494 274.072L-8.97874 243.962Z" fill="#FFFFF8"/>
<path d="M26.2276 122.027H-9.24603L-27 152.621L-9.24603 183.181H26.2276L43.9816 152.621L26.2276 122.027ZM-8.9869 122.509H25.9364L43.3991 152.587L25.9364 182.665H-8.9869L-26.4496 152.621L-8.9869 122.509Z" fill="#FFFFF8"/>
<path d="M132.934 0H97.4487L79.6887 30.7233L97.4487 61.4445H132.934L150.695 30.7233L132.934 0ZM97.708 0.486312H132.643L150.112 30.7233L132.643 60.9604H97.708L80.2393 30.7233L97.708 0.486312Z" fill="#FFFFF8"/>
</svg>
