<svg width="150" height="305" viewBox="0 0 150 305" fill="none" xmlns="http://www.w3.org/2000/svg">
<path d="M17.7541 122.027H53.2277L70.9817 152.603L53.2277 183.181H17.7541L9.15527e-05 152.603L17.7541 122.027ZM52.9686 122.509H18.0453L0.582611 152.603L18.0453 182.697H52.9686L70.4313 152.603L52.9686 122.509Z" fill="#FFFFF8"/>
<path d="M71.2626 30.2971H106.737L124.491 60.8748L106.737 91.4504H71.2626L53.5091 60.8748L71.2626 30.2971ZM106.478 30.7811H71.5538L54.0938 60.8748L71.5538 90.9664H106.478L123.938 60.8748L106.478 30.7811Z" fill="#FFFFF8"/>
<path d="M124.772 60.8738H160.246L178 91.4675L160.246 122.027H124.772L107.018 91.4675L124.772 60.8738ZM159.987 61.3575H125.064L107.601 91.4355L125.064 121.511H159.987L177.45 91.4675L159.987 61.3575Z" fill="#FFFFF8"/>
<path d="M71.2626 91.4504H106.737L124.491 122.026L106.737 152.604H71.2626L53.5091 122.026L71.2626 91.4504ZM106.478 91.9344H71.5538L54.0938 122.026L71.5538 152.154H106.478L123.938 122.06L106.478 91.9344Z" fill="#FFFFF8"/>
<path d="M71.2626 213.757H106.737L124.491 244.334L106.737 274.911H71.2626L53.5091 244.334L71.2626 213.757ZM106.478 214.241H71.5538L54.0938 244.334L71.5538 274.427H106.478L123.938 244.334L106.478 214.241Z" fill="#FFFFF8"/>
<path d="M124.748 183.181H160.238L178 213.772L160.238 244.334H124.748L107.018 213.772L124.748 183.181ZM159.979 183.662H125.04L107.569 213.74L125.04 243.818H159.979L177.449 213.772L159.979 183.662Z" fill="#FFFFF8"/>
<path d="M124.748 243.481H160.238L178 274.072L160.238 304.634H124.748L107.018 274.072L124.748 243.481ZM159.979 243.962H125.04L107.569 274.04L125.04 304.118H159.979L177.449 274.072L159.979 243.962Z" fill="#FFFFF8"/>
<path d="M124.772 122.027H160.246L178 152.621L160.246 183.181H124.772L107.018 152.621L124.772 122.027ZM159.987 122.509H125.064L107.601 152.587L125.064 182.665H159.987L177.45 152.621L159.987 122.509Z" fill="#FFFFF8"/>
<path d="M18.0655 0H53.5513L71.3113 30.7233L53.5513 61.4445H18.0655L0.305489 30.7233L18.0655 0ZM53.292 0.486312H18.3569L0.888206 30.7233L18.3569 60.9604H53.292L70.7607 30.7233L53.292 0.486312Z" fill="#FFFFF8"/>
</svg>
