<svg width="227" height="34" viewBox="0 0 227 34" fill="none" xmlns="http://www.w3.org/2000/svg">
<mask id="mask0_1_1451" style="mask-type:luminance" maskUnits="userSpaceOnUse" x="6" y="1" width="221" height="31">
<path d="M6.68848 1.33777H226.077V31.6598H6.68848V1.33777Z" fill="white"/>
</mask>
<g mask="url(#mask0_1_1451)">
<mask id="mask1_1_1451" style="mask-type:luminance" maskUnits="userSpaceOnUse" x="-8" y="-102" width="242" height="241">
<path d="M-7.35278 21.3946L107.179 -101.663L233.5 15.9043L118.97 138.962L-7.35278 21.3946Z" fill="white"/>
</mask>
<g mask="url(#mask1_1_1451)">
<mask id="mask2_1_1451" style="mask-type:luminance" maskUnits="userSpaceOnUse" x="-8" y="-102" width="242" height="241">
<path d="M-7.35278 21.3946L107.179 -101.663L233.5 15.9043L118.97 138.962L-7.35278 21.3946Z" fill="white"/>
</mask>
<g mask="url(#mask2_1_1451)">
<path d="M30.02 17.1537L27.8555 11.0759C29.7227 13.2404 31.6643 15.4467 33.3411 17.2559C32.6421 17.8319 31.0698 18.308 30.1686 17.5579L30.02 17.1537ZM72.744 29.3908C73.4314 30.3012 76.446 30.0155 76.8803 29.4396L76.7526 26.2857L76.3856 17.2908L76.374 16.8379C75.6935 17.0817 73.1063 17.0771 72.4096 16.6637L72.7068 28.0716L72.744 29.3908ZM206.011 15.895C204.906 15.9019 204.267 16.2201 204.267 16.2201H204.174L203.682 29.4094C205.006 29.6672 206.26 29.8599 207.454 29.9877L207.458 29.9482L207.493 28.3085L207.756 16.2735C207.756 16.2735 206.906 15.8926 206.011 15.895ZM216.516 12.6133C216.516 12.6133 215.847 11.5868 214.751 10.1887L214.728 10.2049L214.755 16.241C214.825 17.0283 218.144 17.2281 218.704 16.5104L218.743 16.5081L218.738 12.2557L218.685 12.0467L216.516 12.6133ZM9.63113 6.08258C9.62648 6.09187 9.62184 6.09651 9.62184 6.09651L19.2066 5.93162L19.3831 5.93858L19.4993 2.63372L19.5086 2.6105C15.7926 0.754852 12.3112 2.40148 9.63113 6.08258ZM218.752 26.5527C218.163 27.2425 215.643 27.3935 214.804 26.7223L214.786 22.4257C214.293 23.4848 209.681 28.0252 207.498 28.3085L207.463 29.9482L207.461 29.9877C211.975 30.4754 215.557 30.0155 218.657 28.5408C223.295 25.9605 226.01 23.1387 226.01 23.1387L218.752 18.9444V26.5527ZM187.042 17.249L194.132 11.2779L194.738 5.20004C194.952 3.09589 198.758 3.5929 198.503 5.12572L198.285 7.79423C198.877 7.10446 202.537 4.34073 204.402 4.03881L204.62 4.04578L204.681 2.39915C201.715 1.56539 196.536 0.675888 191.951 4.03184C189.94 5.58789 185.318 8.8974 181.944 12.0768L181.846 12.1697C182.424 12.7666 182.956 13.3426 183.435 13.8814C183.632 14.102 183.839 14.3389 184.05 14.5897L184.053 14.5874L184.587 12.8084C185.095 11.1409 188.767 11.9375 187.964 14.0579L187.216 16.6405L187.042 17.249ZM174.198 19.5482L174.238 25.6423C173.404 28.1785 169.802 27.5259 169.978 25.6609L169.988 23.1596H169.96C168.127 24.941 165.35 26.6433 163.97 27.3447L163.986 30.6263C167.788 31.0537 172.073 30.5938 176.114 27.9416C176.433 27.7372 176.744 27.5142 177.057 27.282C178.585 26.1324 180.049 24.6785 181.298 22.8229L181.3 22.8205C178.599 20.4772 176.075 18.0688 174.177 16.2108L174.182 16.7868L174.198 19.5482ZM142.752 18.589C142.752 18.589 148.709 13.0012 149.357 12.1953L149.952 5.7435C150.242 4.01791 154.234 4.85167 154.239 5.72724C154.239 5.72724 154.162 6.70035 154.053 8.07525C155.368 6.67016 157.976 5.0305 159.541 4.55207L159.562 4.5544L159.567 3.15628C159.409 3.07963 159.256 3.02157 159.116 2.97977C156.497 2.20639 152.337 0.72466 148.173 3.93895L148.166 3.92733C144.125 6.96511 140.481 11.1757 137.949 13.0174C138.446 13.5981 138.962 14.2135 139.482 14.8568L139.687 13.8628C140.225 11.7726 143.693 12.4508 143.217 14.2832L142.773 17.0214L142.55 18.387C142.615 18.452 142.678 18.5217 142.745 18.5913L142.75 18.5867L142.752 18.589ZM125.352 23.0714C124.623 23.9957 118.905 28.2644 118.631 28.4664L118.582 30.0945C118.157 30.5613 115.394 30.264 114.465 29.9923L114.446 30.055C116.016 30.5218 117.63 30.7703 119.279 30.7262C125.246 30.552 129.428 28.9867 131.667 27.8858C131.725 27.8603 131.779 27.8255 131.834 27.7976C133.725 26.7641 135.52 25.4937 137.123 23.9237C134.454 21.7708 132.394 19.7665 131.37 18.7725C131.302 18.7028 131.193 18.5937 131.047 18.4427C130.952 18.531 129.108 20.231 129.103 20.3355L128.924 27.1496C128.82 28.1111 125.373 28.4409 125.366 26.922L125.378 23.076L125.352 23.0714ZM104.901 3.45123C102.037 5.50893 96.015 10.3234 93.1143 13.4773C94.5542 14.8545 95.892 16.1504 96.9765 17.2257C98.5628 18.7864 100.602 20.9138 102.973 23.0133L98.0983 18.3312C100.398 16.5592 103.115 13.9371 103.853 13.2056H103.874L104.497 5.99897C105.407 4.25015 108.531 4.86561 108.967 5.97574L108.847 8.20066C110.516 6.84434 114.409 4.94457 114.894 4.84006L114.908 4.83774L114.948 3.19111L114.969 3.14234C111.213 1.50036 107.372 1.73029 104.903 3.46749L104.901 3.45123ZM88.8804 21.0671L89.3473 23.0621C89.0569 24.2094 85.1993 25.1918 84.7906 23.2014L84.3261 21.1066C83.8059 21.9171 79.0053 25.6098 76.8687 26.281L76.7526 26.2857L76.8803 29.4396C76.446 30.0155 73.4291 30.3035 72.744 29.3908L72.7092 28.074C72.161 28.3573 68.4056 29.9017 66.2411 29.7949L66.2318 29.8297C70.3774 30.8748 75.4891 32.6051 82.4472 30.0109C84.0102 29.4001 85.6383 28.6174 87.2245 27.6722C87.5079 27.505 87.7889 27.3284 88.0815 27.145C88.2278 27.0474 88.3811 26.9499 88.5367 26.8477C88.7086 26.7316 88.8897 26.6131 89.0639 26.49C90.0974 25.784 91.0961 25.0037 92.0367 24.1536L92.183 23.9771C91.0961 23.0992 89.9929 22.1308 88.8804 21.0671ZM67.1352 5.81782L67.2212 5.82711C67.8645 4.94457 69.179 4.05507 70.4099 4.05042L70.4239 4.02952C69.7968 3.58593 69.2812 3.24221 68.9096 3.02622C65.3864 0.991743 61.4243 2.33412 57.7873 4.60085C51.375 9.2597 45.4899 16.5662 44.7932 17.2792C45.8104 18.1779 46.9066 19.086 48.0423 19.9732L50.9895 16.032L56.1245 9.17145C57.8524 6.60048 60.5046 9.05997 59.5106 10.4813C59.4827 10.5208 57.4459 13.5121 55.4138 16.4895L62.4323 9.67774L63.1104 4.63568C63.3821 2.61514 67.4766 3.3862 67.2189 5.09553L67.1352 5.81782ZM33.0276 25.5982L33.0113 25.6029C32.3448 26.0975 25.7769 29.054 22.832 29.4814C22.825 29.8483 22.8204 30.0504 22.8204 30.0504C22.3675 30.5474 19.0348 30.5776 18.5424 29.8924C14.7754 30.3616 9.76815 27.4422 7.25293 25.7631C13.5631 30.0179 20.0985 31.7458 28.666 31.481C33.5037 30.6426 38.6479 28.9356 43.841 25.9117C41.767 24.5717 40.053 23.2572 38.8059 22.2817C38.4738 22.6138 37.0106 23.501 36.3534 23.7588L36.9665 25.3102C37.2382 26.641 34.5767 27.9741 33.3527 26.49L33.0276 25.5982Z" fill="#E37043"/>
</g>
</g>
</g>
<path d="M20.1241 2.67542C21.4131 3.31177 22.7252 4.36849 24.0398 5.9106L24.0212 5.92686C24.0328 5.96634 23.9097 11.2453 23.7727 16.8656L23.7262 16.8633C23.7262 16.8633 22.925 17.4347 21.7266 17.3975C20.5305 17.3627 19.6201 16.7774 19.6201 16.7774L19.9964 6.00118L20.1125 2.69632L20.1241 2.67542ZM51.6074 16.0992L48.6602 20.0405C49.7378 20.8835 50.8502 21.7103 51.9766 22.5046L51.979 22.5023C52.0533 22.3931 53.6186 20.0962 55.3581 17.5415C55.3535 17.4532 55.2792 16.6241 54.3525 15.9088C53.045 14.9078 51.6074 16.0992 51.6074 16.0992ZM62.1049 16.8122C62.1026 16.8146 62.1026 16.8146 62.1026 16.8146L60.6417 27.7487C62.2628 28.5383 63.7515 29.1329 65.0149 29.4627L66.4432 17.1606C66.4432 17.1606 66.4432 17.1606 66.4432 17.156C66.4107 17.0886 65.9044 16.004 64.3855 15.8554C63.078 15.7369 62.1676 16.7402 62.1049 16.8122ZM194.218 16.6729L193.5 23.9538C194.71 24.9803 195.992 25.9372 197.337 26.7686L198.138 17.0979C197.89 15.8554 195.124 15.3189 194.225 16.6706L194.22 16.6752L194.218 16.6729ZM104.174 16.9376L103.635 23.1154C105.119 24.4322 106.733 25.7374 108.454 26.8847L108.995 16.9585C108.995 16.9585 107.971 15.7578 106.561 15.6765C105.275 15.6046 104.355 16.6984 104.174 16.9376ZM119.583 16.9075C119.221 17.0631 116.227 17.2326 115.24 16.7565L114.92 30.0038C114.966 30.0201 115.02 30.0386 115.08 30.0572C116.009 30.329 118.771 30.6285 119.198 30.1594L119.247 28.5314L119.583 16.9075ZM129.786 16.7542L129.907 16.645C128.857 15.5279 127.519 14.1042 126.107 12.6225L126.031 12.6945L126.017 16.436H126.049C126.056 17.7226 129.28 18.1035 129.733 16.9678C129.76 16.9028 129.784 16.8285 129.786 16.7542ZM149.585 16.9121L149.55 16.9075L148.914 23.8446C150.212 24.9269 151.561 25.9372 152.857 26.7407C152.906 26.3227 153.389 21.564 153.851 16.8935L153.849 16.8912C153.803 16.8169 153.166 15.7834 151.719 15.7718C150.217 15.7602 149.585 16.9121 149.585 16.9121ZM160.187 3.22119L160.182 4.61931L160.136 16.429C160.136 16.429 160.812 16.7704 162.277 16.8006C163.636 16.8262 164.347 16.4104 164.347 16.4104L164.535 16.4081L164.488 6.3658C162.86 4.93517 161.302 3.7182 160.187 3.22119ZM170.633 16.7635C171.223 18.4356 174.535 17.8155 174.798 16.8517L174.793 16.2757C173.079 14.5989 171.878 13.3657 171.5 13.0197C171.267 12.8037 170.979 12.5296 170.65 12.2091L170.629 16.7588L170.633 16.7635Z" fill="#59C1C9"/>
<path d="M33.6709 17.4976C33.9334 17.7786 34.1865 18.0457 34.428 18.3081L36.6785 24.0005L37.2916 25.5519C37.5634 26.8826 34.9018 28.2157 33.6779 26.7317L33.3551 25.8399L30.4984 17.8041C31.4019 18.552 32.9672 18.0759 33.6709 17.4976ZM23.4869 17.047H23.4405C23.4405 17.047 22.6392 17.616 21.4408 17.5789C20.2448 17.544 19.3344 16.9588 19.3344 16.9588L18.8699 30.1364C19.3646 30.8239 22.695 30.789 23.1455 30.2943C23.1455 30.2943 23.1525 30.0923 23.1595 29.7253C23.2106 27.9603 23.3522 22.3515 23.4869 17.047ZM72.449 5.52762L72.7463 16.9077C73.4407 17.3188 76.028 17.328 76.7108 17.0819L76.5064 8.76978C75.0734 7.57603 73.666 6.45428 72.449 5.52762ZM62.7644 9.92172L61.8191 16.989C61.8818 16.917 62.7923 15.9137 64.0998 16.0321C65.6164 16.1807 66.125 17.2653 66.1552 17.3327L67.465 6.05947L67.5487 5.33718C67.8064 3.62785 63.7143 2.85447 63.4402 4.87733L62.7644 9.92172ZM55.7413 16.7381L55.7459 16.7335C57.7781 13.7561 59.8149 10.7694 59.8427 10.7253C60.8344 9.30162 58.1822 6.84214 56.4566 9.41542L51.3216 16.276C51.3216 16.276 52.7639 15.0845 54.0668 16.0855C54.9958 16.7985 55.0677 17.623 55.0724 17.7182C55.293 17.3954 55.516 17.0679 55.7413 16.7381ZM85.1227 23.4454C85.5315 25.4358 89.3891 24.4534 89.6794 23.3061L89.2126 21.3111C87.9538 20.1104 86.6811 18.7842 85.4153 17.3257L85.413 17.328C85.413 17.328 84.5583 17.4256 83.7919 17.2073L83.7478 17.2189L84.6559 21.3482L85.1227 23.4454ZM125.736 16.6104L125.715 23.3153L125.703 27.1613C125.708 28.6826 129.154 28.3528 129.261 27.3889L129.44 20.5748L129.528 17.1724L129.452 17.1399C128.999 18.2756 125.775 17.8947 125.768 16.6081L125.736 16.6104ZM104.209 13.4519L103.891 17.1167C104.074 16.8798 104.991 15.7836 106.278 15.8556C107.69 15.9392 108.712 17.1376 108.712 17.1376L109.186 8.44696L109.306 6.22204C108.87 5.1119 105.746 4.49645 104.836 6.24526L104.209 13.4519ZM115.312 3.38631L115.289 3.43509L115.252 5.08171L114.964 16.9355C115.944 17.4117 118.938 17.2421 119.305 17.0865L119.614 6.44964C118.582 5.45563 117.767 4.72405 117.326 4.45C116.657 4.02964 115.986 3.67662 115.312 3.38631ZM140.026 14.1091L139.821 15.1031L140.585 15.995C141.043 15.9973 142.443 15.9833 143.08 17.263L143.112 17.2677L143.556 14.5295C144.032 12.6947 140.564 12.0189 140.026 14.1091ZM149.302 17.0912C149.302 17.0912 149.933 15.9392 151.434 15.9485C152.883 15.9578 153.519 16.989 153.563 17.0679C153.928 13.3636 154.276 9.71734 154.385 8.31458C154.492 6.942 154.571 5.96657 154.571 5.96657C154.567 5.09564 150.577 4.25724 150.284 5.98283L149.689 12.4346L149.267 17.0819L149.302 17.0912ZM159.85 16.6058L159.804 29.8206L159.767 29.9367C161.153 30.3478 162.691 30.6892 164.316 30.8726L164.3 27.591L164.244 16.5849L164.056 16.5872C164.056 16.5872 163.348 17.0006 161.987 16.9774C160.528 16.9448 159.85 16.6058 159.85 16.6058ZM170.35 16.9425L170.32 23.4036L170.311 25.9049C170.139 27.7722 173.736 28.4224 174.57 25.8863L174.53 19.7922L174.514 17.0308C174.249 17.9923 170.94 18.6147 170.35 16.9425ZM184.387 14.8337L184.385 14.836C184.508 14.9754 184.638 15.124 184.766 15.2773C185.841 15.1333 187.213 15.9183 187.555 16.8868L188.303 14.3042C189.106 12.1838 185.434 11.3872 184.926 13.0547L184.387 14.8337ZM194.464 11.5219L193.937 16.8496C194.836 15.4979 197.602 16.0344 197.85 17.277L198.61 8.0382L198.612 8.03588L198.833 5.36737C199.088 3.83455 195.284 3.33986 195.066 5.44169L194.464 11.5219ZM204.597 16.4618C204.597 16.4618 205.238 16.1459 206.341 16.1366C207.238 16.1366 208.088 16.5175 208.088 16.5175L208.357 4.26653L208.489 4.05286C207.828 3.64179 207.154 3.31432 206.485 3.09601C206.095 2.96595 205.596 2.80802 205.008 2.64545L204.952 4.28975L204.504 16.4618H204.597ZM215.115 22.6674L215.113 22.672L215.132 26.9663C215.97 27.6351 218.49 27.4865 219.08 26.7967L219.071 19.1907V16.759H219.031C218.471 17.4767 215.153 17.277 215.083 16.492L215.115 22.6674ZM6.85115 25.5054C6.77218 25.452 6.69786 25.4009 6.63051 25.3475C6.62587 25.3475 6.62122 25.3429 6.61658 25.3405C6.32627 25.1338 6.12422 24.9852 6.04061 24.9202C6.02203 24.9086 6.00809 24.8946 5.98951 24.883L0.445801 27.8186C0.445801 27.8186 13.0428 34.491 28.9912 31.7227C20.4236 31.9874 13.8882 30.2595 7.5804 26.0071C7.33654 25.8468 7.09501 25.6773 6.85115 25.5054ZM206.485 3.09601C207.152 3.312 207.825 3.63946 208.489 4.05286C211.058 5.63678 213.511 8.42141 215.083 10.4327C216.179 11.8308 216.848 12.8573 216.848 12.8573L219.017 12.2906L226.277 10.3932C226.277 10.3932 219.205 3.14246 215.868 1.62357C212.911 0.278863 199.081 -0.979911 192.283 4.27582C196.866 0.917539 202.047 1.80936 205.013 2.64313C205.598 2.8057 206.097 2.96827 206.485 3.09601ZM82.7817 30.2525C75.8236 32.8467 70.7118 31.1165 66.5663 30.0714C66.1087 29.9576 65.6721 29.8508 65.2378 29.7625C65.0729 29.7277 64.9057 29.6859 64.7338 29.6441C64.7315 29.6417 64.7315 29.6417 64.7315 29.6417C63.4681 29.3119 61.9794 28.7174 60.3583 27.9278C57.6735 26.6132 54.6358 24.7576 51.6955 22.6813L51.6932 22.6836C50.5668 21.8894 49.4544 21.0626 48.3767 20.2195C47.2411 19.3323 46.1472 18.4219 45.1276 17.5255C44.3566 16.8496 43.632 16.1738 42.9561 15.5142C36.8318 9.48045 32.0475 1.83259 28.2991 1.05689C26.6292 0.710839 18.3566 0.478594 16.9097 0.659746C12.8199 1.17301 10.1398 6.01069 9.96789 6.33119C12.6434 2.64545 16.1247 0.998825 19.8407 2.85447C21.1296 3.49083 22.4418 4.54754 23.7563 6.08966C23.8121 6.15237 23.8632 6.21275 23.9143 6.27546C25.1498 7.75719 26.6432 9.5269 28.1899 11.3175C30.0572 13.482 31.9988 15.6884 33.6756 17.4976C33.938 17.7786 34.1912 18.0457 34.4327 18.3081C35.7727 19.7248 36.8806 20.8071 37.5541 21.2971C37.935 21.5781 38.4714 22.0032 39.138 22.5257C40.3875 23.5035 42.1015 24.818 44.1731 26.1557C47.478 28.2947 51.6909 30.501 56.3567 31.5067C58.93 31.9085 74.0097 31.8574 75.8654 31.8504C77.6653 31.8434 80.1317 31.2953 82.7817 30.2525ZM114.778 30.299C112.46 29.6069 110.238 28.4457 108.168 27.0615C106.45 25.9119 104.836 24.6043 103.349 23.2921V23.2968L103.305 23.2573C100.932 21.1555 98.8949 19.0304 97.3087 17.4697C96.2194 16.3944 94.8863 15.0985 93.4464 13.7213C88.8108 9.27143 83.1022 3.96228 81.0863 2.52933C78.4456 0.650456 71.8429 0.8618 66.9541 1.00579C64.2113 1.08708 61.1061 2.67796 58.1171 4.84714C61.7564 2.5781 65.7139 1.23572 69.2394 3.27251C69.611 3.4885 70.1266 3.83455 70.7536 4.27582C71.2576 4.63348 71.8266 5.05849 72.4444 5.52762C73.6637 6.45661 75.0711 7.57836 76.5017 8.76978C78.9334 10.7926 81.4416 13.0199 83.2299 14.8662C83.7432 15.3911 84.1937 15.8904 84.57 16.3387C84.8533 16.6754 85.1343 17.0075 85.4177 17.328C86.6834 18.7866 87.9561 20.1127 89.2149 21.3134C90.3273 22.3771 91.4305 23.3455 92.5151 24.2211C100.479 30.6706 107.432 32.3729 109.527 32.3799C111.815 32.3892 122.939 33.0023 132.002 28.1275C129.763 29.2283 125.578 30.796 119.614 30.9679C117.965 31.0166 116.348 30.7658 114.778 30.299ZM142.35 18.055L140.583 15.9926L139.819 15.1008C139.296 14.4552 138.785 13.8397 138.286 13.2614C129.658 3.19355 124.252 1.88136 122.115 1.1614C119.853 0.392663 111.176 0.160417 106.543 2.81034C106.276 2.9613 105.823 3.27019 105.235 3.69752L105.245 3.71146C107.713 1.97426 111.557 1.74666 115.312 3.38631C115.988 3.67894 116.659 4.03196 117.319 4.45C117.763 4.72405 118.578 5.45563 119.609 6.44964C121.339 8.11484 123.669 10.5325 125.826 12.7992C127.236 14.2833 128.576 15.7093 129.626 16.8217C130.399 17.6439 131.015 18.2965 131.386 18.6844C131.532 18.8353 131.644 18.9468 131.709 19.0142C132.733 20.0082 134.798 22.0124 137.462 24.1654C141.468 27.4006 146.83 30.9679 152.035 31.9433C155.969 32.3892 163.448 32.0269 164.843 31.8852C165.868 31.7807 171.374 31.5438 176.447 28.1855C172.405 30.8378 168.12 31.3023 164.319 30.8703C162.693 30.6868 161.158 30.3431 159.769 29.9344C157.69 29.3305 155.935 28.585 154.673 28.0416C154 27.7489 153.296 27.368 152.574 26.9152C151.278 26.1116 149.926 25.099 148.63 24.0191C146.496 22.2447 144.496 20.2961 143.084 18.833C143.019 18.7633 142.954 18.6937 142.889 18.6286C142.699 18.4266 142.52 18.2361 142.35 18.055ZM164.2 6.54022C166.469 8.53056 168.868 10.932 170.366 12.3928C170.696 12.7133 170.986 12.9874 171.216 13.2034C171.595 13.5494 172.796 14.785 174.51 16.4594C176.409 18.3151 178.932 20.7258 181.633 23.0692C185.871 26.7526 190.542 30.2758 193.911 31.2698C204.258 34.9137 213.144 32.0455 218.98 28.7917C215.88 30.2665 212.298 30.724 207.781 30.2363C206.587 30.1085 205.333 29.9158 204.009 29.658C203.724 29.6022 203.438 29.5465 203.146 29.4861C201 29.0356 198.963 28.1275 197.047 26.95C195.702 26.1186 194.42 25.1617 193.21 24.1375C190.941 22.2145 188.918 20.0593 187.193 18.1014C186.301 17.0865 185.483 16.1227 184.756 15.2773C184.629 15.124 184.498 14.9754 184.375 14.836C184.162 14.5875 183.955 14.353 183.76 14.1277C183.282 13.5889 182.75 13.0152 182.171 12.416C178.207 8.28438 172.234 3.07278 168.599 1.24965C166.26 0.0768083 158.531 0.534333 156.051 0.736387C153.489 0.947731 150.92 2.34817 148.493 4.17131L148.5 4.18292C152.665 0.968633 156.824 2.45036 159.444 3.22374C159.583 3.26555 159.734 3.32361 159.894 3.40025C161.018 3.89726 162.577 5.11422 164.2 6.54022Z" fill="#484D99"/>
<path d="M216.17 1.21675C212.835 -0.299812 198.819 -1.30312 192.047 3.92939C192.044 3.93171 192.044 3.93171 192.042 3.93403C191.624 4.25686 191.094 4.654 190.486 5.11152C188.261 6.78834 184.931 9.29195 182.283 11.7468C178.251 7.60584 172.485 2.63113 168.927 0.849806C166.274 -0.483287 157.779 0.143779 156.102 0.283126C153.74 0.480535 151.181 1.6348 148.271 3.81791C146.046 5.49008 143.946 7.51062 142.095 9.29195C140.709 10.625 139.489 11.7956 138.444 12.6131C130.406 3.3511 125.062 1.61157 122.765 0.863741C122.619 0.817291 122.487 0.773165 122.368 0.733683C119.941 -0.0907907 111.155 -0.311425 106.364 2.42443C106.009 2.62649 105.43 3.03756 105.012 3.33948C102.462 5.17423 96.6423 9.79592 93.5162 13.045C90.8733 10.5159 83.8896 3.88526 81.4789 2.17129C78.7198 0.201839 72.3122 0.389959 67.1633 0.540919L67.0262 0.543241C64.4715 0.622205 61.4036 1.94136 57.9106 4.47749L57.4949 4.74225C57.4298 4.78405 57.3787 4.83979 57.3393 4.90018C52.0882 8.85068 47.3271 14.3549 45.4947 16.4753C45.3739 16.6147 45.2694 16.7378 45.1719 16.8446C44.575 16.3104 43.9805 15.7646 43.4115 15.2049C41.2167 13.0474 39.1497 10.6204 37.3243 8.48141C33.8243 4.38227 31.0629 1.14011 28.492 0.60827C26.7943 0.255256 18.4566 0.0113975 16.9284 0.204162C12.6551 0.738328 9.92391 5.52492 9.59644 6.1334C9.5918 6.14502 9.58715 6.15431 9.58483 6.16127C9.57786 6.17288 9.57322 6.1845 9.56857 6.19379C9.50819 6.32849 9.50122 6.48177 9.56625 6.62576C9.65218 6.81853 9.84262 6.94162 10.0563 6.93697L19.2602 6.77905L18.4404 29.7203C15.2214 29.8759 11.0851 27.6255 8.79055 26.1786C8.50953 25.9997 8.22851 25.8232 7.94982 25.6328C7.7106 25.4772 7.47371 25.3146 7.22521 25.1381C7.15321 25.0893 7.08818 25.0429 7.01851 24.9918C7.0069 24.9848 6.99296 24.9732 6.98135 24.9662L6.41932 24.5552C6.4077 24.5459 6.36822 24.518 6.35661 24.511C6.35196 24.5064 6.34267 24.5041 6.33571 24.5017C6.32177 24.4925 6.30319 24.4878 6.28926 24.4785C6.273 24.4715 6.25674 24.4623 6.24281 24.4576C6.22887 24.453 6.21494 24.4506 6.201 24.446C6.17778 24.4414 6.1592 24.4367 6.1383 24.4344C6.12669 24.4344 6.11972 24.4321 6.11043 24.4321C6.08488 24.4321 6.05701 24.4297 6.03147 24.4344C6.02218 24.4274 6.02218 24.4274 6.01753 24.4274C5.92695 24.4344 5.83638 24.4646 5.76206 24.5157L0.278731 27.4257C0.106868 27.5163 3.56209e-05 27.6951 3.56209e-05 27.8925C-0.00228729 28.0853 0.109191 28.2641 0.278731 28.357C0.408789 28.4267 13.2218 35.0806 29.1632 32.3145C34.4235 31.4064 39.4958 29.5624 44.2383 26.8405C48.3792 29.4857 52.4458 31.2555 56.3522 32.0985C58.5678 32.4422 69.4625 32.4655 75.761 32.4469H75.9398C77.8559 32.4422 80.3781 31.8663 83.0419 30.8188C83.0419 30.8188 83.0443 30.8165 83.0466 30.8188L83.0489 30.8142C83.0512 30.8119 83.0535 30.8142 83.0559 30.8119C83.0605 30.8119 83.0628 30.8095 83.0651 30.8072C84.6351 30.222 86.2632 29.4254 87.8982 28.443C87.9005 28.4406 87.9075 28.4406 87.9098 28.4383C88.1931 28.2665 88.4835 28.0876 88.7854 27.8995L88.7947 27.8925C88.9433 27.7973 89.0966 27.6998 89.2266 27.6115C89.2313 27.6069 89.2359 27.6069 89.2406 27.5999C89.4078 27.4907 89.575 27.3769 89.7422 27.2631C89.7538 27.2539 89.7654 27.2469 89.7747 27.2422L89.7771 27.2399C90.7966 26.5432 91.7558 25.7907 92.636 25.0034C100.792 31.4831 107.774 32.9787 109.602 32.9834C109.769 32.9834 109.985 32.988 110.247 32.9927C113.603 33.0577 123.815 33.2458 132.294 28.6868C132.299 28.6868 132.306 28.6798 132.313 28.6775L132.315 28.6752C132.359 28.652 132.404 28.6311 132.448 28.6079L132.503 28.58C132.503 28.58 132.503 28.58 132.506 28.5777C133.66 27.9947 134.264 27.5535 134.289 27.5349C134.317 27.514 134.343 27.4931 134.364 27.4722C134.371 27.4629 134.373 27.4559 134.38 27.4489C135.536 26.6849 136.605 25.8464 137.571 24.9407C142.901 29.1861 147.762 31.7478 152.019 32.5421C152.033 32.5444 152.045 32.5467 152.056 32.5491C156.016 32.9973 163.576 32.6304 164.978 32.4887C165.053 32.4794 165.143 32.4724 165.259 32.4631C169.728 32.0869 173.616 30.8235 176.814 28.7124L176.816 28.71C176.816 28.71 176.816 28.71 176.818 28.7054C176.818 28.7054 176.818 28.7054 176.821 28.7031C177.116 28.515 177.429 28.2943 177.784 28.0272C177.784 28.0272 177.784 28.0272 177.787 28.0249C178.695 27.3398 179.536 26.5873 180.304 25.7605C180.845 25.1822 181.349 24.5644 181.814 23.9188C186.951 28.3361 191.004 31.0046 193.823 31.8407C204.456 35.5845 213.557 32.5375 219.322 29.3232C220.436 28.796 221.519 28.1201 222.538 27.3189C222.54 27.3142 222.54 27.3142 222.543 27.3119C225.207 25.4632 226.712 23.9095 226.798 23.8236C226.8 23.8213 226.802 23.8189 226.805 23.8166C226.911 23.7005 226.962 23.5402 226.939 23.3846C226.916 23.2221 226.821 23.0827 226.679 23.0014L219.684 18.9604L219.677 12.7617L226.489 10.9804C226.589 10.9548 226.674 10.9014 226.742 10.8294C226.798 10.769 226.839 10.6924 226.865 10.6134C226.916 10.43 226.865 10.2395 226.735 10.1025C226.445 9.80057 219.556 2.75655 216.17 1.21675ZM192.681 4.7678C195.865 2.43837 199.859 1.88795 204.551 3.11885L204.523 3.87365C203.002 4.22434 200.686 5.78503 199.33 6.85569L199.441 5.49937C199.518 4.98146 199.311 4.49839 198.856 4.13841C198.104 3.54618 196.824 3.39987 195.879 3.80398C195.149 4.11286 194.706 4.70045 194.627 5.45989L194.046 11.3241L188.447 16.041L188.883 14.5407C189.148 13.8231 189.039 13.131 188.572 12.5875C187.994 11.907 186.879 11.5587 185.929 11.7584C185.214 11.9094 184.694 12.3506 184.503 12.9754L184.241 13.8463C183.876 13.4329 183.467 12.9893 183.01 12.5086C185.62 10.0978 188.911 7.61746 191.118 5.9569C191.728 5.49473 192.26 5.09294 192.681 4.7678ZM215.733 17.5878C216.425 17.7922 217.707 17.9036 218.632 17.6621L218.634 19.2948V19.2994L218.639 26.6338C218.091 26.9752 216.479 27.082 215.743 26.7429L215.726 22.7506C215.726 22.746 215.729 22.7436 215.729 22.739L215.703 17.5738C215.712 17.5785 215.724 17.5831 215.733 17.5878ZM214.672 22.6113C214.073 23.6517 210.496 27.0843 208.448 27.9274L208.696 16.6007C208.696 16.6007 208.696 16.6007 208.699 16.5984L208.952 5.00933C211.135 6.53983 213.19 8.853 214.616 10.6599L214.672 22.6113ZM207.356 29.7133C206.499 29.6088 205.589 29.4695 204.639 29.293L205.097 16.9421C205.333 16.8632 205.789 16.7447 206.425 16.7401C206.887 16.7378 207.342 16.8585 207.637 16.9537L207.382 28.6148L207.356 29.7133ZM187.072 17.0002L187.044 17.0954C186.784 16.7981 186.533 16.5032 186.287 16.2175C186.633 16.4242 186.923 16.7029 187.072 17.0002ZM187.432 15.7577C186.807 15.1747 185.915 14.7962 185.077 14.8055C185.068 14.7985 185.063 14.7892 185.054 14.7799L185.507 13.2773C185.604 12.9591 185.904 12.8337 186.138 12.7873C186.714 12.6665 187.432 12.8802 187.769 13.2726C187.985 13.5258 188.024 13.8231 187.885 14.1877C187.878 14.2016 187.875 14.2156 187.873 14.2272L187.432 15.7577ZM187.868 18.0383L187.915 17.8665L193.898 12.8291L193.498 16.8539C193.496 16.8608 193.493 16.8678 193.493 16.8725L192.873 23.1361C190.862 21.3455 189.106 19.4318 187.868 18.0383ZM198.173 8.04247C198.171 8.05176 198.169 8.05872 198.169 8.06337L197.509 16.0457C197.219 15.8738 196.873 15.7437 196.482 15.6671C195.823 15.537 195.189 15.5928 194.657 15.7972L195.672 5.55976C195.711 5.18584 195.909 4.92805 196.287 4.77012C196.935 4.49375 197.802 4.64703 198.201 4.96288C198.429 5.14171 198.401 5.29035 198.394 5.34377C198.389 5.3577 198.389 5.37396 198.389 5.38557L198.173 8.04247ZM196.68 26.0973C195.744 25.4795 194.799 24.7688 193.847 23.9769L194.525 17.1349C194.906 16.6727 195.663 16.5868 196.28 16.7076C196.845 16.819 197.3 17.107 197.398 17.4043L196.68 26.0973ZM198.459 17.3764V17.3718L199.204 8.33974C199.92 7.63603 202.751 5.51563 204.483 4.97682L203.594 29.0909C203.51 29.07 203.429 29.0561 203.341 29.0398C201.501 28.6543 199.604 27.8763 197.688 26.736L198.459 17.3764ZM207.661 15.8622C207.312 15.767 206.876 15.6834 206.418 15.6857C205.891 15.6903 205.461 15.7577 205.136 15.8366L205.559 4.37995L205.594 3.4138C205.879 3.50206 206.149 3.58566 206.402 3.6716C206.885 3.82952 207.391 4.05712 207.909 4.35208L207.661 15.8622ZM147.918 5.4297C148.003 5.41112 148.087 5.37164 148.154 5.30893C148.408 5.07668 148.654 4.86766 148.914 4.67025C152.653 1.78343 156.311 2.87731 158.977 3.67624L159.39 3.79701C159.411 3.80398 159.437 3.81327 159.456 3.82256V4.47749C158.139 4.96288 156.401 6.01728 155.106 7.08793L155.182 6.07766C155.182 6.06373 155.187 6.04747 155.187 6.03354C155.182 5.09294 153.626 4.6238 152.583 4.53787C151.044 4.41246 150.024 4.9443 149.852 5.96619C149.85 5.9778 149.848 5.98941 149.85 6.00335L149.272 12.2879C148.572 13.059 145.535 15.9504 143.67 17.7062L144.157 14.7033C144.313 14.0785 144.146 13.4863 143.691 13.0404C143.091 12.4505 142.056 12.2136 141.175 12.4551C140.407 12.6665 139.847 13.2216 139.624 13.9903C139.459 13.7906 139.297 13.5978 139.136 13.412C140.212 12.562 141.44 11.3845 142.829 10.0491C144.373 8.56038 146.104 6.89749 147.918 5.4297ZM163.871 30.3404C162.746 30.1848 161.588 29.9409 160.412 29.6158L160.459 17.3927C160.844 17.4786 161.372 17.5622 162.066 17.5762C162.835 17.5901 163.413 17.4763 163.808 17.3555L163.871 30.3404ZM153.947 8.34671C153.858 9.47775 153.596 12.2972 153.231 15.9969C152.82 15.7275 152.258 15.4976 151.522 15.4929C150.888 15.4906 150.386 15.6555 149.996 15.8784L150.893 6.12644C150.914 6.0196 150.988 5.75716 151.573 5.6364C152.565 5.42737 153.865 5.8431 154.123 6.10321L153.947 8.34671ZM152.223 26.0833C151.292 25.4609 150.298 24.7177 149.262 23.8607L149.854 17.3997C149.933 17.2766 150.435 16.5403 151.51 16.5473C152.414 16.5543 152.915 17.0466 153.106 17.2859C152.746 20.9344 152.386 24.4925 152.223 26.0833ZM148.28 23.0363C146.482 21.4872 144.908 19.9358 143.916 18.9232C144.919 17.9826 147.578 15.472 149.114 13.9531L148.28 23.0363ZM142.85 16.1525C142.36 15.7832 141.712 15.5881 140.918 15.551L140.469 15.0261L140.616 14.3108C140.75 13.772 141.143 13.5606 141.449 13.4747C141.97 13.333 142.613 13.4654 142.945 13.7952C143.136 13.981 143.196 14.1993 143.124 14.4664C143.122 14.4826 143.119 14.4989 143.115 14.5128L142.85 16.1525ZM142.065 16.891C142.288 17.0234 142.483 17.2162 142.634 17.4809L142.625 17.5437L142.065 16.891ZM154.174 17.193C154.177 17.1767 154.177 17.1581 154.177 17.1395C154.574 13.1194 154.871 9.97708 154.982 8.61844C156.062 7.51991 157.985 6.23791 159.453 5.61317L159.411 16.6379C159.411 16.6425 159.411 16.6472 159.411 16.6518L159.365 29.3069C157.479 28.7124 155.874 28.0203 154.969 27.6324C154.427 27.4002 153.84 27.0866 153.217 26.715C153.343 25.4865 153.761 21.3734 154.174 17.193ZM163.801 16.2338C163.608 16.322 163.027 16.5357 162.085 16.5194C161.295 16.5009 160.761 16.3894 160.459 16.3058L160.503 4.34743C161.341 4.8607 162.431 5.70143 163.752 6.85104L163.801 16.2338ZM164.816 7.79396C166.393 9.2246 167.981 10.783 169.194 11.9674C169.454 12.2229 169.695 12.4575 169.925 12.6804L169.904 17.0048C169.907 17.0095 169.909 17.0118 169.909 17.0165L169.881 23.2151C168.411 24.6063 166.344 25.9626 164.911 26.7778L164.816 7.79396ZM172.018 14.7172C172.552 15.2537 173.251 15.9481 174.068 16.7517V16.9909C173.952 17.179 173.265 17.532 172.359 17.532C172.013 17.5297 171.207 17.4624 170.956 16.8934L170.97 13.686C171.154 13.8579 171.518 14.2202 172.018 14.7172ZM170.954 18.2845C171.384 18.4935 171.913 18.6027 172.519 18.5818C173.054 18.5632 173.611 18.4448 174.078 18.2357L174.087 19.8777C174.087 19.8824 174.087 19.887 174.089 19.8917L174.126 25.872C173.739 26.9264 172.754 27.2283 171.936 27.0564C171.432 26.9543 170.863 26.6175 170.919 26.0253C170.919 26.009 170.919 25.9951 170.919 25.9788L170.954 18.2845ZM175.127 17.7829C175.251 17.9036 175.374 18.0221 175.494 18.1405L175.13 18.5307L175.127 17.7829ZM108.324 16.113C107.834 15.7786 107.168 15.4465 106.39 15.4023C105.686 15.3629 105.08 15.6044 104.611 15.9086L105.43 6.47945C105.867 5.7711 106.808 5.73858 107.202 5.75949C107.976 5.79897 108.652 6.11947 108.854 6.41442L108.324 16.113ZM107.776 26.1669C106.557 25.3053 105.307 24.3113 103.981 23.1454L104.481 17.3973C104.743 17.0908 105.437 16.4056 106.327 16.4567C107.223 16.5078 107.96 17.1279 108.255 17.4113L107.776 26.1669ZM103.003 22.2257L99.3154 18.6886C100.911 17.4113 102.604 15.8483 103.642 14.8612L103.003 22.2257ZM109.778 8.78565C111.109 7.76842 113.582 6.48642 114.783 5.93599L114.207 29.6042C112.465 28.9957 110.649 28.0737 108.796 26.8567L109.778 8.78565ZM115.875 4.26847C116.3 4.47981 116.718 4.71438 117.122 4.96753C117.472 5.18584 118.155 5.78503 119.156 6.73957L118.866 16.7261C118.111 16.8167 116.43 16.8469 115.577 16.6356L115.875 4.26847ZM118.522 28.6961C118.511 28.7518 118.508 28.8099 118.518 28.8656L118.485 30.0803C117.879 30.2057 116.179 30.0756 115.259 29.8597L115.552 17.7039C116.55 17.8967 117.958 17.8734 118.838 17.7782L118.522 28.6961ZM132.004 27.6464L131.941 27.6765C131.92 27.6905 131.89 27.7067 131.848 27.7276C129.447 28.9075 125.387 30.3497 119.676 30.5146C119.618 30.5169 119.56 30.5146 119.502 30.5169C119.505 30.4867 119.518 30.4565 119.521 30.431L119.558 29.0561C121.014 27.9645 123.778 25.865 125.264 24.5877L125.257 27.2422C125.26 28.1457 126.024 28.7426 127.257 28.8076C128.037 28.8517 129.089 28.6473 129.586 28.1132C129.737 27.9506 129.84 27.7555 129.863 27.5279C129.865 27.5163 129.867 27.5 129.867 27.4838L130.044 20.8462C130.285 20.5907 130.959 19.9544 131.449 19.4968C132.397 20.4165 134.278 22.2466 136.742 24.2741C135.365 25.5399 133.771 26.6779 132.004 27.6464ZM126.342 18.0569C126.6 18.1847 126.895 18.2845 127.229 18.3472C127.831 18.4633 128.511 18.4448 129.057 18.2566L128.815 27.3955C128.655 27.6185 127.645 27.8949 126.848 27.6882C126.312 27.5488 126.312 27.3166 126.312 27.2399L126.342 18.0569ZM130.118 18.0987C130.341 18.3356 130.539 18.547 130.715 18.7304C130.474 18.9557 130.267 19.1461 130.086 19.3157L130.118 18.0987ZM129.057 16.977C129.055 16.9839 129.055 16.9956 129.043 17.0234C128.936 17.2719 128.211 17.4577 127.422 17.3091C126.825 17.1953 126.377 16.9282 126.374 16.682C126.374 16.6286 126.358 16.5822 126.347 16.5334L126.353 14.1087C127.338 15.1492 128.263 16.1293 129.057 16.977ZM125.304 13.0009L125.274 23.1477C124.735 23.7214 122.591 25.4447 119.602 27.7044L119.911 17.1488C119.911 17.1442 119.911 17.1442 119.913 17.1419C119.913 17.1419 119.909 17.1395 119.913 17.1372L120.185 7.73822C121.483 9.02719 123.174 10.7644 125.304 13.0009ZM114.809 4.77941C113.826 5.18119 111.487 6.35404 109.85 7.44559L109.913 6.32617C109.917 6.25185 109.904 6.17288 109.876 6.10553C109.523 5.21835 108.271 4.75619 107.254 4.70509C105.981 4.64006 104.929 5.151 104.446 6.07766C104.411 6.14037 104.395 6.21004 104.388 6.2774L103.779 13.268C103.219 13.8207 100.762 16.2013 98.5467 17.9571C98.2749 17.6853 98.0079 17.4182 97.757 17.1721C96.7653 16.192 95.567 15.0238 94.2664 13.7766C97.2368 10.6715 102.764 6.27972 105.393 4.36601L105.405 4.38227C105.479 4.32885 105.551 4.27311 105.628 4.21737C107.955 2.58468 111.453 2.43605 114.834 3.8063L114.809 4.77941ZM46.2867 17.1651C48.1586 15.0006 53.131 9.25015 58.4935 5.35306C62.7878 2.67758 66.2436 2.16896 69.0561 3.79469C69.1931 3.87365 69.3603 3.97584 69.5415 4.09428C69.0282 4.28705 68.5451 4.56806 68.1248 4.90018C68.0365 4.53091 67.8112 4.1895 67.4536 3.90849C66.5989 3.23497 65.159 3.01434 64.1719 3.4138C63.5077 3.68088 63.092 4.20112 62.9991 4.87463L62.3511 9.73554L59.1926 12.8012L59.3528 12.562C59.952 11.6887 60.3376 11.122 60.3538 11.0942C60.7277 10.5577 60.7695 9.87953 60.4606 9.22924C60.0867 8.44657 59.3041 7.9008 58.4633 7.84041C57.9431 7.80093 56.9421 7.92402 56.1107 9.16886L50.992 16.0155C50.9897 16.0178 50.9873 16.0201 50.985 16.0224L48.3537 19.5386C47.5199 18.8744 46.714 18.2102 45.9499 17.546C46.0521 17.4345 46.1613 17.3137 46.2867 17.1651ZM91.8092 24.3276C90.9917 25.0429 90.1138 25.7303 89.1709 26.376C88.999 26.4967 88.8295 26.6082 88.6646 26.7197C88.5485 26.794 88.437 26.8683 88.3232 26.9403L88.214 27.0123C87.9307 27.1912 87.6497 27.3677 87.3687 27.5326C85.866 28.429 84.2844 29.2001 82.6703 29.8318C77.2172 31.8639 72.8742 31.1556 69.2953 30.2777C70.5726 29.9572 71.8337 29.495 72.6164 29.1792L72.6303 29.7157C72.6303 29.8248 72.6698 29.9317 72.7348 30.0199C73.2551 30.7097 74.4395 30.8142 75.0991 30.8142C75.8284 30.8142 77.1591 30.6702 77.6561 30.136C77.677 30.1128 77.6956 30.0919 77.7142 30.0687C77.7862 29.9711 77.8257 29.8527 77.8187 29.7296L77.7072 26.9961C79.5675 26.2831 82.9026 23.8677 84.4331 22.4858L84.6839 23.6169C84.8813 24.583 85.6942 25.1544 86.9088 25.1822C87.9911 25.2078 89.2847 24.7944 89.9187 24.1139C90.0906 23.9281 90.216 23.7237 90.2694 23.5031C90.2903 23.4218 90.2903 23.3359 90.2741 23.2546L90.1951 22.9341C90.7362 23.4172 91.2727 23.8816 91.8092 24.3276ZM51.7839 16.7238C51.9976 16.5659 52.973 15.9203 53.83 16.5752C54.3781 16.9979 54.55 17.4484 54.6034 17.6667L52.5411 20.6952C52.1625 21.2457 51.8536 21.6985 51.6446 22.0097C50.8015 21.4082 49.9817 20.7997 49.1921 20.1889L51.7839 16.7238ZM55.3954 16.5055C55.393 16.5078 55.3907 16.5102 55.3884 16.5125L55.2955 16.6472C55.1143 16.3522 54.8565 16.0364 54.471 15.7391C53.9554 15.3443 53.4073 15.2165 52.8964 15.2374L56.9746 9.78199C57.3904 9.16422 57.8781 8.85765 58.389 8.89713C58.8489 8.93197 59.3041 9.25015 59.5131 9.68909C59.5944 9.86328 59.7035 10.1977 59.4945 10.4996C59.4829 10.5182 59.0904 11.0895 58.4866 11.9744L55.3954 16.5055ZM53.412 21.2898L56.2314 17.1512L62.1259 11.4309L61.3827 16.977C61.3803 16.9839 61.3803 16.9886 61.3803 16.9956L60.0147 27.1958C57.7039 26.016 55.1306 24.4506 52.5062 22.6206C52.7176 22.307 53.0241 21.8518 53.412 21.2898ZM67.1075 5.34841L65.8511 16.1734C65.4702 15.8924 64.943 15.6508 64.2277 15.5812C63.5867 15.5208 63.0293 15.688 62.5857 15.9063L64.0442 5.02094C64.0837 4.72599 64.2555 4.52162 64.5644 4.3962C65.1961 4.14073 66.2412 4.3033 66.7986 4.73993C67.0378 4.92572 67.1424 5.12778 67.1075 5.34841ZM62.3999 17.3091C62.6368 17.0838 63.2917 16.5566 64.1325 16.6356C65.0916 16.7261 65.5422 17.2719 65.6978 17.5204L64.3624 29.0398C63.3823 28.7379 62.2606 28.2874 61.0134 27.6951L62.3999 17.3091ZM66.7638 17.474C66.7638 17.467 66.7638 17.467 66.7638 17.4624L68.0365 6.47945C68.0435 6.47248 68.0528 6.46319 68.0597 6.45623C68.5916 5.72697 69.6831 4.96288 70.712 4.90482C71.0813 5.16726 71.5063 5.48311 72.0126 5.864L72.3029 17.0048V17.0095L72.5932 28.0551C71.5225 28.5266 68.4638 29.6715 66.6872 29.5833C66.6546 29.581 66.6245 29.5856 66.5919 29.5879C66.2157 29.495 65.8209 29.3998 65.4307 29.3162C65.4168 29.3162 65.4075 29.3116 65.3959 29.3092L66.7638 17.474ZM82.8306 15.198L84.173 21.2921C83.381 22.1677 79.7649 24.95 77.6631 25.8836L77.3264 17.5971L77.3194 17.2371C77.3287 17.1721 77.3287 17.1047 77.3147 17.0397L77.1406 9.99566C79.4259 11.9279 81.4162 13.7464 82.8306 15.198ZM85.2761 17.9408C86.4048 19.2321 87.5916 20.4769 88.8132 21.6521L89.2081 23.3312C88.9851 23.6564 87.9748 24.1557 86.9367 24.1301C86.4467 24.1185 85.8358 23.9838 85.7197 23.4009L85.2761 21.385C85.2715 21.313 85.2599 21.2457 85.2297 21.1783L84.512 17.9245C84.8163 17.9501 85.0857 17.9478 85.2761 17.9408ZM73.6522 28.4662C73.6662 28.4035 73.6592 28.3384 73.6476 28.2757L73.3712 17.6993C74.2561 17.8711 75.4684 17.8758 76.2859 17.7829L76.755 29.502C76.4136 29.653 75.5543 29.8271 74.6625 29.7482C74.1608 29.7017 73.8427 29.5903 73.6824 29.4811L73.6522 28.4662ZM76.2534 16.7308C75.4823 16.8353 74.0099 16.7958 73.3457 16.617L73.0879 6.69312C74.0401 7.43398 75.0527 8.24916 76.0653 9.09454L76.2534 16.7308ZM84.3286 16.8399C84.3077 16.8353 84.2891 16.8376 84.2705 16.833L84.2496 16.754C84.2752 16.7819 84.3007 16.8098 84.3286 16.8399ZM11.1316 5.86864C12.8316 3.86668 15.7161 1.62551 19.3717 3.25123L19.2857 5.72465L11.1316 5.86864ZM29.0215 31.2694C26.8848 31.3344 24.8759 31.2671 22.9622 31.0697C23.2386 30.9884 23.4731 30.8792 23.6171 30.7236C23.6195 30.7213 23.6195 30.7213 23.6218 30.719C23.7077 30.6261 23.7542 30.5053 23.7611 30.3776L23.7635 30.2405C26.5272 29.6924 31.409 27.572 33.1555 26.6732L33.2646 26.9821C33.2855 27.0402 33.3157 27.0936 33.3552 27.1424C34.1913 28.1527 35.543 28.1387 36.5114 27.6765C36.8598 27.507 37.1548 27.2933 37.3824 27.0472C37.8004 26.5989 37.9955 26.0485 37.8887 25.5167C37.8817 25.4888 37.8747 25.4586 37.8608 25.4261L37.4311 24.3368C37.9955 24.0535 38.7364 23.6099 39.2171 23.2639C40.2994 24.1069 41.658 25.1335 43.2419 26.1902C38.7503 28.7008 33.9707 30.4078 29.0215 31.2694ZM31.4554 18.7722C32.2311 18.8558 33.0603 18.6143 33.6734 18.259C33.764 18.3565 33.8545 18.4541 33.9451 18.5493L34.0543 18.6631L36.2629 24.2532C36.2629 24.2579 36.2629 24.2625 36.2653 24.2649C36.2676 24.2695 36.2722 24.2741 36.2745 24.2765L36.8621 25.7652C36.897 26.0857 36.5672 26.4805 36.0586 26.7243C35.5221 26.9775 34.7348 27.075 34.2215 26.5316L31.4554 18.7722ZM37.3173 21.7961C37.5821 21.9912 37.9397 22.2675 38.3485 22.5857C37.9723 22.8365 37.466 23.1385 37.0433 23.3544L35.9517 20.5954C36.5184 21.1458 36.9713 21.5452 37.3173 21.7961ZM32.9325 17.4577C32.3333 17.7341 31.5274 17.8595 31.0188 17.539L29.702 13.8417C30.898 15.2073 31.978 16.4196 32.9325 17.4577ZM27.8022 11.6562L32.7978 25.6769C31.4485 26.3922 26.5481 28.5451 23.789 29.1583C23.8215 27.9158 23.8726 25.8325 23.9353 23.4055L24.0956 17.1303C24.2279 11.7166 24.293 8.96913 24.3208 7.55939C25.2545 8.6765 26.4714 10.1118 27.8022 11.6562ZM20.4052 3.8063C21.3736 4.40781 22.3398 5.25551 23.2897 6.34242C23.2827 7.14135 23.1898 11.1708 23.0505 16.7819C22.7903 16.9166 22.2469 17.1442 21.5362 17.1256C20.8511 17.107 20.2705 16.8748 19.9523 16.7238L20.4052 3.8063ZM19.9128 17.8479C20.3285 18.0058 20.879 18.1591 21.506 18.1754C22.1099 18.1916 22.6278 18.0732 23.0226 17.9361L22.8832 23.3777C22.8089 26.297 22.7439 28.7263 22.7183 29.7853L22.7114 30.0547C22.0518 30.2661 20.0614 30.2545 19.4878 29.9688L19.9128 17.8479ZM6.02218 25.5747C6.12204 25.649 6.24745 25.7373 6.39609 25.8418C6.39609 25.8418 6.39609 25.8418 6.39841 25.8441C6.4077 25.8511 6.41699 25.8557 6.42164 25.8604C6.42396 25.8627 6.42396 25.8627 6.42628 25.865C6.48667 25.9115 6.5517 25.9579 6.63298 26.0113C6.87684 26.1878 7.12302 26.3551 7.36456 26.513C7.3692 26.5176 7.37385 26.5176 7.37849 26.5223C7.63396 26.6941 7.91034 26.873 8.20761 27.0588C8.4956 27.2422 8.78823 27.4211 9.08086 27.5953C9.09479 27.6046 9.11105 27.6138 9.12266 27.6208C12.9106 29.8782 16.8727 31.2857 21.3411 31.9313C11.7331 31.9476 4.23388 29.0027 1.69775 27.8647L6.02218 25.5747ZM44.5379 25.7837C42.5103 24.4739 40.8033 23.171 39.5376 22.1793L39.0592 21.803C38.6156 21.4593 38.2324 21.1574 37.9374 20.9437C37.3452 20.5094 36.3163 19.5247 34.8927 18.0198L34.7139 17.8293C34.5234 17.6296 34.3306 17.4229 34.1356 17.2115C32.6538 15.6137 30.8307 13.5606 28.7173 11.1128C28.6731 11.0129 28.6058 10.9363 28.5222 10.8828C26.85 8.93661 25.359 7.16458 24.3975 6.01264C24.3394 5.94528 24.286 5.87561 24.2326 5.82219C22.9134 4.27543 21.5409 3.14207 20.1543 2.45695C18.4775 1.61854 16.8054 1.42578 15.1866 1.83453C15.7672 1.54654 16.3873 1.3352 17.0492 1.25391C18.4682 1.07741 26.6642 1.31198 28.269 1.64176C30.4893 2.10161 33.2809 5.37396 36.5138 9.16421C38.3531 11.3218 40.4364 13.7627 42.6636 15.9574C43.365 16.6425 44.0966 17.323 44.8328 17.9663C44.8351 17.9687 44.8375 17.971 44.8421 17.9756C44.8467 17.9803 44.8514 17.9849 44.8607 17.9872C45.8779 18.8884 46.9811 19.8011 48.1284 20.7022C49.1874 21.5336 50.3115 22.3674 51.4681 23.1803C51.4843 23.1919 51.5006 23.2012 51.5168 23.2128C54.5686 25.3657 57.5738 27.1819 60.2029 28.4685C61.8913 29.293 63.3777 29.8759 64.6248 30.208C64.6341 30.2127 64.648 30.215 64.6573 30.2173C64.6643 30.2196 64.6713 30.222 64.6782 30.2243C64.8571 30.2684 65.0336 30.3125 65.2054 30.3497C65.6165 30.4356 66.0276 30.5332 66.5153 30.6539C66.8567 30.7399 67.2028 30.8304 67.5604 30.9257C68.1526 31.079 68.7681 31.2392 69.4068 31.3925C62.3302 31.3646 57.7457 31.2508 56.538 31.0627C52.706 30.2336 48.6672 28.4592 44.5379 25.7837ZM110.268 31.9359C110.001 31.929 109.78 31.9266 109.609 31.9243C107.848 31.9174 101.006 30.4287 92.924 23.8793C91.8626 23.0223 90.792 22.0771 89.7399 21.0784C89.6865 20.9832 89.6098 20.9112 89.5146 20.8624C88.2605 19.6571 87.0435 18.3774 85.8893 17.0466C85.6106 16.7308 85.3296 16.4033 85.0532 16.0666C84.6607 15.5974 84.2032 15.0935 83.6852 14.5639C82.0665 12.8918 79.6628 10.7133 76.9176 8.43032C75.5148 7.2598 74.1028 6.1334 72.8463 5.17423C72.1496 4.64471 71.6085 4.24292 71.1416 3.91081C70.4913 3.45096 69.9665 3.10259 69.5833 2.88196C68.3106 2.14806 66.9357 1.79272 65.4516 1.8113C66.009 1.68821 66.5432 1.61157 67.0495 1.59764L67.1865 1.59532C71.9173 1.45597 78.39 1.26785 80.8588 3.02827C82.8306 4.43104 88.502 9.7007 93.1609 14.1714C94.6031 15.551 95.9385 16.8446 97.0162 17.9152C97.3854 18.2752 97.7779 18.67 98.1913 19.0834C99.6057 20.4978 101.204 22.098 103.024 23.7144L103.069 23.7539C103.08 23.7655 103.092 23.7725 103.106 23.7841C104.815 25.2937 106.401 26.5362 107.953 27.572C110.268 29.1211 112.539 30.2359 114.702 30.8746C116.102 31.2926 117.498 31.5225 118.857 31.562C115.059 32.0219 111.868 31.9615 110.268 31.9359ZM152.193 31.4947C148.015 30.7097 143.198 28.1317 137.871 23.8282C135.19 21.6637 133.14 19.6687 132.16 18.7165C132.095 18.6515 131.988 18.5423 131.846 18.396C131.844 18.3937 131.841 18.3913 131.839 18.389C131.832 18.3844 131.83 18.3774 131.825 18.3728C131.823 18.3704 131.823 18.3704 131.821 18.3681C131.514 18.043 131.052 17.5529 130.476 16.9421L130.074 16.5171C129.027 15.4023 127.694 13.988 126.288 12.5062C123.532 9.60781 121.493 7.52688 120.053 6.14269C118.875 5.00701 118.12 4.35208 117.681 4.0757C117.02 3.65534 116.318 3.28374 115.6 2.97253C114.103 2.3176 112.565 1.94601 111.088 1.84614C115.391 0.926447 120.387 1.17263 122.024 1.73002C122.15 1.77182 122.287 1.81595 122.433 1.8624C124.679 2.59397 129.935 4.29866 137.966 13.6721C138.444 14.2249 138.941 14.8241 139.501 15.5115L142.044 18.4842C142.214 18.6654 142.395 18.8558 142.597 19.0718C142.65 19.1276 142.708 19.1856 142.759 19.2437C142.762 19.246 142.783 19.2692 142.785 19.2716C143.839 20.3654 145.967 22.4951 148.375 24.4971C149.745 25.6421 151.051 26.6036 152.247 27.356C152.316 27.4397 152.411 27.5 152.528 27.5279C153.238 27.9669 153.921 28.3292 154.548 28.5986C155.57 29.0398 157.479 29.8643 159.702 30.5099C161.279 30.9744 162.842 31.2949 164.342 31.4645C164.361 31.4668 164.377 31.4691 164.391 31.4668C162.249 31.6294 155.751 31.8965 152.193 31.4947ZM177.155 27.1772C176.818 27.4304 176.516 27.6417 176.24 27.8205C172.965 29.9688 169.159 30.856 164.92 30.4658L164.909 27.9808C166.186 27.3003 168.227 26.023 169.869 24.6364L169.862 25.951C169.781 26.9821 170.52 27.8391 171.716 28.0899C172.635 28.2781 173.746 28.0621 174.496 27.2562C174.772 26.9589 174.997 26.585 175.151 26.1228C175.169 26.0694 175.179 26.0137 175.176 25.9556L175.141 20.0705L176.256 18.8721C177.926 20.4653 179.496 21.9029 181.008 23.2244C179.935 24.7293 178.641 26.0601 177.155 27.1772ZM194.146 30.8351C191.364 30.0083 187.295 27.2864 182.062 22.7413C179.865 20.8323 177.541 18.677 174.963 16.1525C174.08 15.2885 173.332 14.5407 172.763 13.974C172.213 13.4236 171.848 13.0613 171.662 12.8871C171.435 12.6758 171.147 12.404 170.822 12.0859C170.552 11.8258 170.255 11.5308 169.932 11.2173C168.488 9.80057 166.507 7.85899 164.635 6.21701C162.691 4.51 161.241 3.45561 160.217 2.99344C160.21 2.99111 160.206 2.98647 160.196 2.98647C160.187 2.98182 160.18 2.9795 160.171 2.97486C159.997 2.89357 159.832 2.82854 159.685 2.78906L159.286 2.67061C157.89 2.25257 156.13 1.7277 154.184 1.74628C154.873 1.52564 155.542 1.38862 156.19 1.3352C159.809 1.0356 166.467 0.794067 168.457 1.79272C172.015 3.57405 177.907 8.70437 181.886 12.8523C182.483 13.4747 183.01 14.046 183.458 14.55C183.653 14.7706 183.858 15.0029 184.076 15.2607C184.197 15.3977 184.32 15.5417 184.452 15.6973L185.109 16.4614C185.66 17.107 186.259 17.8038 186.891 18.5237C188.305 20.1262 190.472 22.5044 192.959 24.6132L192.964 24.6155C192.966 24.6179 192.966 24.6179 192.969 24.6202C194.269 25.7234 195.581 26.6825 196.861 27.4745C198.97 28.7727 201.079 29.6483 203.125 30.078C203.424 30.1384 203.712 30.1964 203.998 30.2522C205.347 30.5146 206.632 30.712 207.811 30.8351C209.721 31.0418 211.458 31.0813 213.067 30.9535C207.902 32.6722 201.392 33.3852 194.146 30.8351ZM225.548 23.5611C224.58 24.4576 222.218 26.4991 218.825 28.3872C215.928 29.7644 212.605 30.222 208.406 29.8248L208.422 29.0422C210.236 28.5033 212.893 26.1925 214.451 24.518C214.528 24.4367 214.602 24.3554 214.674 24.2741L214.686 27.0402C214.688 27.1981 214.758 27.3491 214.886 27.4489C215.915 28.2711 218.699 28.141 219.531 27.2469C219.542 27.233 219.551 27.2237 219.563 27.2121C219.644 27.1145 219.689 26.9961 219.689 26.8683L219.684 20.175L225.548 23.5611ZM218.629 16.5496C218.46 16.6356 218.035 16.7517 217.334 16.7447C216.456 16.7378 215.87 16.5543 215.696 16.4382L215.675 12.058C216.189 12.7594 216.484 13.2123 216.488 13.2216C216.611 13.412 216.844 13.5002 217.064 13.4445L218.629 13.0358V16.5496ZM225.337 10.1884L217.157 12.3274C216.876 11.914 216.326 11.136 215.575 10.1791C213.954 8.1075 211.472 5.29732 208.847 3.67856C208.125 3.23033 207.412 2.88893 206.732 2.66829C206.3 2.52894 205.823 2.37566 205.273 2.22238C205.273 2.22238 205.271 2.22006 205.268 2.22238C205.257 2.22006 205.245 2.21541 205.234 2.21309C203.849 1.82292 202.519 1.57674 201.248 1.47687C207.435 0.487502 213.98 1.38397 215.731 2.18058C218.365 3.372 223.532 8.38851 225.337 10.1884Z" fill="#7077B5"/>
</svg>
