<svg width="64" height="72" viewBox="0 0 64 72" fill="none" xmlns="http://www.w3.org/2000/svg">
<path d="M8.75832 72L6.93341 70.8216L19.9291 39.8959L31.643 47.475L8.75832 72Z" fill="#FFFFF8"/>
<path d="M16.3636 35.4367L29.7664 0L64 22.151L37.1686 48.8972C37.6193 49.346 38.0528 49.7934 38.4656 50.2428C38.9542 50.7688 39.4168 51.2947 39.8508 51.8178C40.2819 52.3381 40.6871 52.8554 41.0607 53.367C41.4372 53.8786 41.7792 54.3844 42.0924 54.8788C42.4028 55.376 42.6816 55.8618 42.9287 56.3389C43.1759 56.816 43.3885 57.2787 43.5667 57.7299C43.7449 58.1812 43.8886 58.6181 43.9978 59.0406C44.1041 59.4631 44.1789 59.8683 44.2162 60.2563C44.2536 60.6472 44.2565 61.018 44.2248 61.3686C44.1904 61.7221 44.1214 62.0527 44.0179 62.3659C43.9145 62.6763 43.7736 62.9666 43.6012 63.2368C43.4288 63.5041 43.219 63.7513 42.9776 63.9726C42.7362 64.1968 42.4603 64.3951 42.1528 64.5704C41.8453 64.7428 41.5062 64.8952 41.1354 65.0188C40.7647 65.1452 40.3652 65.243 39.937 65.3177C39.5059 65.3924 39.049 65.4384 38.5633 65.4614C38.0805 65.4844 37.5689 65.4815 37.0344 65.4499C36.4999 65.4211 35.9395 65.3665 35.3589 65.2861C34.7784 65.2056 34.1778 65.0964 33.5599 64.967C32.9391 64.8348 32.3011 64.6767 31.6488 64.4957C30.9935 64.3146 30.3268 64.1105 29.6457 63.8806C28.9617 63.6507 28.272 63.3978 27.5679 63.1247C26.8666 62.8488 26.1568 62.5528 25.4412 62.2366C24.7256 61.9176 24.0042 61.5813 23.28 61.222C22.5587 60.8656 21.8345 60.4891 21.1103 60.0954C20.386 59.7016 19.6647 59.2906 18.9491 58.8652C18.2306 58.4399 17.5208 57.9972 16.8167 57.5431C16.1154 57.0861 15.42 56.6205 14.7389 56.1405C14.0549 55.6606 13.3853 55.172 12.73 54.6747C12.0748 54.1746 11.4339 53.6688 10.8103 53.1572C10.1895 52.6427 9.586 52.1254 9.0026 51.6023C8.4192 51.0763 7.8588 50.5532 7.31851 50.0244C6.78109 49.4955 6.26667 48.9696 5.77811 48.4407C5.28955 47.9119 4.82973 47.3888 4.39578 46.8657C3.96182 46.3426 3.55948 45.8281 3.183 45.3165C2.8094 44.8049 2.4674 44.2991 2.15415 43.8019C1.84377 43.3075 1.56213 42.8218 1.31785 42.3447C1.0707 41.8676 0.858033 41.4048 0.679852 40.9536C0.501671 40.5024 0.357978 40.0655 0.24877 39.643C0.139563 39.2205 0.0677158 38.8152 0.0303556 38.4244C-0.00700537 38.0363 -0.00987888 37.6656 0.021734 37.3149C0.0562205 36.9614 0.125194 36.628 0.228653 36.3176C0.332113 36.0043 0.470059 35.714 0.645365 35.4467C0.817798 35.1766 1.02759 34.9323 1.269 34.711C1.5104 34.4868 1.78629 34.2885 2.0938 34.1131C2.4013 33.9378 2.74042 33.7884 3.11115 33.6648C3.47901 33.5383 3.88135 33.4406 4.30956 33.3659C4.74064 33.2911 5.19759 33.2451 5.68327 33.2222C6.16608 33.1992 6.67763 33.202 7.21218 33.2308C7.74672 33.2624 8.30425 33.317 8.88477 33.3975C9.4653 33.478 10.0659 33.5843 10.6867 33.7165C11.3075 33.8487 11.9455 34.0068 12.5978 34.1879C13.2531 34.3689 13.9198 34.573 14.6009 34.8029C15.1802 34.9985 15.7677 35.2086 16.3636 35.4367Z" fill="#9AAED7"/>
</svg>
