<svg width="242" height="187" viewBox="0 0 242 187" fill="none" xmlns="http://www.w3.org/2000/svg">
<mask id="mask0_1_2111" style="mask-type:luminance" maskUnits="userSpaceOnUse" x="0" y="45" width="221" height="142">
<path d="M0 45.3303H220.765V186.407H0V45.3303Z" fill="white"/>
</mask>
<g mask="url(#mask0_1_2111)">
<mask id="mask1_1_2111" style="mask-type:luminance" maskUnits="userSpaceOnUse" x="-9" y="-2" width="256" height="190">
<path d="M-8.40698 172.153L2.78989 -1.02979L246.656 14.7371L235.459 187.917L-8.40698 172.153Z" fill="white"/>
</mask>
<g mask="url(#mask1_1_2111)">
<mask id="mask2_1_2111" style="mask-type:luminance" maskUnits="userSpaceOnUse" x="-9" y="-2" width="256" height="190">
<path d="M-8.40698 172.153L2.78989 -1.02979L246.656 14.7371L235.459 187.917L-8.40698 172.153Z" fill="white"/>
</mask>
<g mask="url(#mask2_1_2111)">
<path d="M79.6555 56.1444C61.4282 65.0793 44.6306 77.459 24.8309 82.8799C19.8827 84.2357 14.8261 85.1396 9.69342 85.361C5.89119 85.5247 -2.69093 83.8484 1.69236 89.8849C7.39456 97.7453 17.0719 100.6 26.468 99.0619C36.6711 97.3925 45.4815 91.243 54.0705 85.8913C63.3052 80.1337 72.6943 75.0403 82.9066 71.2173C93.2457 67.3459 104.009 64.5328 114.927 62.8842C125.34 61.314 133.908 60.4608 140.447 70.0506C145.771 77.8556 147.856 87.3993 150.235 96.3918C152.122 103.537 154.125 110.625 156.53 117.587C159.839 115.786 163.118 113.937 166.364 112.078C168.779 110.692 171.165 109.256 173.547 107.805C168.474 88.7896 163.549 66.8594 146.756 54.4865C126.876 39.8402 100.048 46.1465 79.6555 56.1444ZM177.236 121.101C177.248 121.094 177.259 121.087 177.268 121.08C182.062 137.001 188.355 152.491 199.934 164.821C203.418 168.526 207.32 171.858 211.592 174.62C214.076 176.225 221.108 178.026 220.739 181.743C220.301 186.177 213.877 186.423 210.658 185.992C205.687 185.326 201.025 182.849 196.944 180.046C179.996 168.404 169 147.624 161.022 129.219L161.82 131.018C165.673 128.728 169.403 126.314 172.993 123.927C174.388 123.003 175.804 122.055 177.236 121.101Z" fill="#FFE8EE"/>
</g>
</g>
</g>
<mask id="mask3_1_2111" style="mask-type:luminance" maskUnits="userSpaceOnUse" x="16" y="0" width="226" height="170">
<path d="M16.5278 0.469055H241.425V169.289H16.5278V0.469055Z" fill="white"/>
</mask>
<g mask="url(#mask3_1_2111)">
<mask id="mask4_1_2111" style="mask-type:luminance" maskUnits="userSpaceOnUse" x="-9" y="-2" width="256" height="190">
<path d="M-8.40698 172.153L2.78989 -1.02973L246.656 14.7372L235.459 187.918L-8.40698 172.153Z" fill="white"/>
</mask>
<g mask="url(#mask4_1_2111)">
<mask id="mask5_1_2111" style="mask-type:luminance" maskUnits="userSpaceOnUse" x="-9" y="-2" width="256" height="190">
<path d="M-8.40698 172.153L2.78989 -1.02973L246.656 14.7372L235.459 187.918L-8.40698 172.153Z" fill="white"/>
</mask>
<g mask="url(#mask5_1_2111)">
<mask id="mask6_1_2111" style="mask-type:luminance" maskUnits="userSpaceOnUse" x="9" y="0" width="238" height="173">
<path d="M9.93799 157.585L20.1226 0.0632019L246.871 14.7234L236.689 172.243L9.93799 157.585Z" fill="white"/>
</mask>
<g mask="url(#mask6_1_2111)">
<path d="M193.04 162.704C192.66 163.601 192.478 164.396 192.57 165.127C192.152 165.012 191.701 165.524 192.046 165.948C193.963 168.3 197.096 170.779 199.863 168.044C201.881 166.05 203.1 162.632 204.445 160.147C206.031 157.221 207.606 154.285 209.144 151.336C211.431 146.953 213.649 142.508 215.775 138.009C212.946 136.575 210.098 135.18 207.235 133.819C204.823 140.891 201.558 147.523 197.892 154.03C196.291 156.877 194.322 159.699 193.04 162.704ZM180.974 137.912C179.224 140.753 176.621 144.158 176.153 147.564C175.576 151.74 179.87 154.56 182.519 152.166C182.687 152.45 183.171 152.535 183.418 152.217C188.894 145.134 192.535 136.916 196.467 128.92C193.75 127.737 191.02 126.586 188.276 125.47C187.986 126.012 187.7 126.554 187.405 127.093C185.39 130.783 183.176 134.336 180.974 137.912ZM48.8389 62.6929C45.4863 67.7218 42.0322 72.7208 38.8018 77.8419C43.7132 75.6791 48.4907 73.2073 53.2153 70.6202C54.8109 68.0377 56.4295 65.4714 58.0828 62.9258C55.6779 61.8513 53.3214 60.6777 50.9833 59.4533C50.2754 60.5347 49.5583 61.6161 48.8389 62.6929ZM28.2875 81.854C33.0697 73.2027 37.6098 64.3761 41.7994 55.4551C39.2054 53.9771 36.5952 52.5359 33.9366 51.2009C32.5601 53.9771 31.1743 56.7486 29.8208 59.5386C26.9202 65.5175 24.1002 71.531 21.0865 77.4591C19.8598 79.8733 18.4764 82.2275 17.0952 84.5817C19.7007 84.1574 22.2809 83.581 24.8311 82.88C25.9955 82.5641 27.1461 82.2183 28.2875 81.854ZM150.236 96.3919C149.585 93.9455 148.961 91.4552 148.285 88.9719C146.281 93.6849 144.432 98.3979 141.93 102.892C140.655 105.186 139.452 107.524 138.289 109.89C140.805 111.375 143.284 112.913 145.647 114.596C147.628 110.372 149.703 106.198 151.751 102.004C151.234 100.139 150.729 98.2665 150.236 96.3919ZM130.157 82.3105C127.459 88.1741 124.778 94.0585 122.045 99.9221C124.48 101.578 126.947 103.187 129.463 104.716C130.666 102.401 131.863 100.079 133.039 97.7454C135.905 92.057 138.799 86.3687 141.474 80.5858C142.251 78.9072 142.912 77.1801 143.521 75.4324C142.627 73.5716 141.617 71.7685 140.448 70.0507C139.479 68.6326 138.467 67.4474 137.413 66.4536C136.233 68.2498 135.476 70.4565 134.628 72.368C133.15 75.686 131.676 79.0063 130.157 82.3105ZM116.79 65.6051C113.933 71.9299 111.132 78.28 108.395 84.6578C107.786 86.0758 107.189 87.4985 106.592 88.9212C109.075 90.6989 111.545 92.4928 114.021 94.2775C116.899 87.9735 119.933 81.7387 122.905 75.4669C124.275 72.5847 125.608 69.6794 126.887 66.7534C127.524 65.2961 128.271 63.7882 128.967 62.2548C125.663 61.6715 122.068 61.9136 118.195 62.4208C117.726 63.4884 117.265 64.5583 116.79 65.6051ZM97.6777 82.744C98.7891 79.5505 99.9189 76.3662 101.171 73.2234C102.328 70.3158 103.823 67.5328 105.155 64.692C101.57 65.4691 98.0097 66.3568 94.4842 67.3806C93.3405 71.1252 92.3421 74.9205 91.1269 78.6397C93.3451 79.954 95.5264 81.3236 97.6777 82.744ZM173.545 107.794C173.545 107.796 173.547 107.801 173.547 107.806C171.165 109.256 168.779 110.692 166.365 112.078C165.943 112.318 165.514 112.558 165.094 112.798C157.972 116.927 150.734 120.859 143.268 124.324C133.378 128.915 121.819 133.22 111.469 127.354C97.65 119.526 94.1152 100.787 89.3123 86.786C87.493 81.485 85.7038 76.1702 83.9052 70.8577C83.5709 70.9799 83.2366 71.0929 82.9068 71.2174C78.3229 72.9306 73.9074 74.9066 69.5956 77.0787C69.6325 77.2263 69.6624 77.3761 69.6993 77.526C72.4939 89.3547 75.6575 101.379 80.797 112.436C89.7919 131.788 106.267 145.964 128.64 143.591C140.722 142.307 151.536 137.255 161.834 131.073C161.559 130.453 161.29 129.835 161.022 129.219L161.82 131.018C165.673 128.728 169.404 126.314 172.994 123.928C174.389 123.003 175.804 122.055 177.236 121.101C177.248 121.094 177.259 121.087 177.269 121.08C177.269 121.082 177.271 121.089 177.271 121.091C181.05 118.569 184.811 116.079 188.595 113.761C197.917 108.05 207.926 102.855 218.784 100.89C224.104 99.9267 229.578 99.8045 234.909 100.75C236.121 100.967 241.203 103.143 241.316 100.598C241.39 98.9283 237.113 96.438 235.942 95.6817C216.912 83.415 193.561 95.631 176.803 105.82C175.719 106.48 174.631 107.137 173.545 107.794ZM36.5906 1.80413C57.9491 7.82222 69.6117 30.6402 76.5798 49.8243C77.3845 52.0402 78.1731 54.2653 78.957 56.4927C74.7951 58.5563 70.7046 60.7906 66.6326 63.078C65.0555 55.5657 63.257 48.1042 60.1165 41.09C55.8208 31.498 49.0326 23.0842 40.6764 16.7156C36.5007 13.529 31.9329 10.852 27.1069 8.7676C25.1539 7.92368 22.9173 7.59165 21.6491 5.96607C21.6122 5.91765 20.457 4.01538 20.3717 3.69488C20.125 2.77717 20.2841 1.70729 21.4439 1.43521C26.4405 0.268484 31.6539 0.416054 36.5906 1.80413Z" fill="#484D99"/>
</g>
</g>
</g>
</g>
<mask id="mask7_1_2111" style="mask-type:luminance" maskUnits="userSpaceOnUse" x="5" y="5" width="227" height="179">
<path d="M5.31226 5.19127H231.39V183.456H5.31226V5.19127Z" fill="white"/>
</mask>
<g mask="url(#mask7_1_2111)">
<mask id="mask8_1_2111" style="mask-type:luminance" maskUnits="userSpaceOnUse" x="-9" y="-2" width="256" height="190">
<path d="M-8.40747 172.153L2.7894 -1.02975L246.656 14.7372L235.459 187.918L-8.40747 172.153Z" fill="white"/>
</mask>
<g mask="url(#mask8_1_2111)">
<mask id="mask9_1_2111" style="mask-type:luminance" maskUnits="userSpaceOnUse" x="-9" y="-2" width="256" height="190">
<path d="M-8.40747 172.153L2.7894 -1.02975L246.656 14.7372L235.459 187.918L-8.40747 172.153Z" fill="white"/>
</mask>
<g mask="url(#mask9_1_2111)">
<path d="M201.327 178.139C203.347 181.192 207.585 182.584 211.083 182.972C212.909 183.172 218.032 183.548 217.53 180.433C217.474 180.087 217.013 179.942 216.762 180.175C214.647 182.142 211.242 181.376 208.701 180.629C206.247 179.91 204.225 178.445 201.89 177.498C201.541 177.357 201.103 177.8 201.327 178.139ZM192.27 105.869C191.806 106.184 192.33 106.936 192.814 106.676C198.696 103.526 204.873 101.003 211.422 99.6476C214.696 98.9697 218.03 98.5201 221.371 98.3748C224.44 98.2365 227.511 98.497 230.56 98.0382C230.933 97.9828 230.933 97.4502 230.606 97.328C224.597 95.1306 216.709 96.4887 210.647 97.9367C204.101 99.4977 197.841 102.076 192.27 105.869ZM116.728 57.8945C121.162 58.0029 125.513 57.5786 129.919 58.3626C134.747 59.2226 139.248 61.2079 142.679 64.7796C145.949 68.1806 148.319 72.4832 150.325 76.7212C152.405 81.1137 153.505 85.8337 155.426 90.2631C155.578 90.6136 156.141 90.4867 156.154 90.1155C156.336 85.0958 154.344 79.7718 152.324 75.2524C150.226 70.5602 147.459 65.801 143.699 62.2386C136.848 55.7455 125.538 54.1407 116.654 56.8062C116.094 56.9722 116.066 57.8761 116.728 57.8945ZM25.9722 6.32802C28.8798 7.6377 31.8427 8.73756 34.6235 10.3124C37.0123 11.6682 39.1267 13.6005 41.6631 14.6634C42.0758 14.834 42.5623 14.3106 42.3179 13.9163C40.6831 11.3016 37.6902 9.66679 35.0247 8.26718C32.2601 6.81915 29.3018 5.6432 26.1889 5.25813C25.5341 5.17743 25.4419 6.08822 25.9722 6.32802ZM32.8158 92.9954C29.5093 96.0944 23.4289 96.2074 19.1932 95.6701C14.1781 95.0291 9.73489 93.0946 5.8312 89.908C5.22478 89.4122 5.84734 88.4346 6.52294 88.8819C10.4013 91.4644 15.0751 93.0554 19.7143 93.4059C22.11 93.588 24.4965 93.475 26.8576 93.06C28.7414 92.7326 30.5815 92.1331 32.4953 92.0593C32.9887 92.0431 33.1224 92.7072 32.8158 92.9954Z" fill="white"/>
</g>
</g>
</g>
<mask id="mask10_1_2111" style="mask-type:luminance" maskUnits="userSpaceOnUse" x="33" y="21" width="198" height="118">
<path d="M33.6458 21.7191H230.799V138.595H33.6458V21.7191Z" fill="white"/>
</mask>
<g mask="url(#mask10_1_2111)">
<mask id="mask11_1_2111" style="mask-type:luminance" maskUnits="userSpaceOnUse" x="-9" y="-2" width="256" height="190">
<path d="M-8.40723 172.153L2.78965 -1.02977L246.656 14.7372L235.459 187.917L-8.40723 172.153Z" fill="white"/>
</mask>
<g mask="url(#mask11_1_2111)">
<mask id="mask12_1_2111" style="mask-type:luminance" maskUnits="userSpaceOnUse" x="-9" y="-2" width="256" height="190">
<path d="M-8.40723 172.153L2.78965 -1.02977L246.656 14.7372L235.459 187.917L-8.40723 172.153Z" fill="white"/>
</mask>
<g mask="url(#mask12_1_2111)">
<path d="M219.559 105.458C217.938 108.689 216.354 111.931 214.793 115.186C211.945 121.128 209.517 127.001 207.435 133.25C207.37 133.441 207.299 133.63 207.234 133.819C210.098 135.18 212.946 136.575 215.775 138.009C219.312 130.515 222.584 122.878 225.452 115.159C226.541 112.23 227.65 109.309 228.713 106.371C229.365 104.568 230.571 102.281 230.507 100.217C227.684 100.019 224.846 100.1 222.033 100.42C221.104 102.046 220.368 103.846 219.559 105.458ZM188.276 125.47C191.02 126.586 193.75 127.737 196.466 128.92C197.382 127.059 198.311 125.21 199.284 123.388C202.074 118.168 204.82 112.917 207.659 107.72C208.639 105.922 209.999 104.446 211.152 102.818C206.015 104.462 201.073 106.731 196.307 109.302C193.755 114.75 191.115 120.164 188.276 125.47ZM60.4922 42.2682C59.1987 44.8645 58.108 47.5162 56.7061 50.071C54.9468 53.2806 52.9938 56.3819 50.9832 59.4532C53.3212 60.6776 55.6777 61.8512 58.0827 62.9257C59.9872 59.9859 61.9241 57.069 63.8955 54.1684C65.7955 51.3668 70.1834 47.085 68.6524 43.3635C67.9053 41.5488 64.9055 39.356 62.7542 39.9463C61.5483 40.276 60.988 41.2721 60.4922 42.2682ZM48.1978 21.9197C47.4 21.9589 46.955 22.5676 46.925 23.1717C44.64 29.5495 41.3404 35.6576 38.4904 41.7932C37.024 44.9568 35.4837 48.0811 33.9365 51.2008C36.5951 52.5359 39.2052 53.977 41.7992 55.455C42.3042 54.3759 42.8161 53.2968 43.3118 52.2154C44.9927 48.5469 46.4708 44.7861 48.1978 41.1407C49.5444 38.2931 51.1907 35.6022 52.535 32.7592C54.4165 28.7702 54.292 21.6153 48.1978 21.9197ZM145.647 114.596C143.284 112.913 140.805 111.375 138.289 109.89C134.33 117.944 130.918 126.328 127.314 134.518C126.493 134.947 126.212 136.257 127.134 136.937C134.376 142.298 140.039 127.49 141.932 122.941C143.104 120.123 144.356 117.349 145.647 114.596ZM115.824 133.171C115.893 132.814 115.789 132.517 115.589 132.295C117.517 126.565 120.77 121.29 123.567 115.968C125.538 112.219 127.512 108.474 129.463 104.716C126.947 103.187 124.48 101.578 122.045 99.922C118.992 106.468 115.877 112.987 112.594 119.404C110.929 122.662 109.04 125.795 107.36 129.039C106.511 130.681 105.748 132.606 106.744 134.357C108.653 137.714 115.061 137.038 115.824 133.171ZM94.7054 115.786C93.5963 118.371 92.9738 120.918 94.2881 123.512C94.597 124.126 95.2196 124.147 95.6392 123.84C96.6861 124.58 98.0373 124.88 99.4784 124.442C103.984 123.074 104.955 116.574 106.313 112.834C108.605 106.521 111.24 100.367 114.021 94.2774C111.545 92.4928 109.075 90.6989 106.592 88.9211C104.224 94.5818 101.913 100.27 99.4046 105.866C97.9104 109.203 96.1465 112.429 94.7054 115.786ZM90.8547 79.4812C90.9493 79.2022 91.0346 78.9209 91.1268 78.6396C93.345 79.9539 95.5263 81.3236 97.6776 82.7439C96.8152 85.2203 95.9597 87.6991 95.0697 90.1639C93.0844 95.6448 90.8455 101.091 87.5805 105.947C86.7297 107.213 85.9596 108.707 84.2256 108.695C82.63 108.686 81.2558 107.441 80.3704 106.258C80.1052 105.905 80.3058 105.5 80.6102 105.366C80.2966 102.511 83.0335 98.8683 84.0688 96.5671C86.5821 90.9756 88.8971 85.2895 90.8547 79.4812Z" fill="#F196A4"/>
</g>
</g>
</g>
<mask id="mask13_1_2111" style="mask-type:luminance" maskUnits="userSpaceOnUse" x="33" y="19" width="185" height="153">
<path d="M33.6458 19.9483H217.813V171.06H33.6458V19.9483Z" fill="white"/>
</mask>
<g mask="url(#mask13_1_2111)">
<mask id="mask14_1_2111" style="mask-type:luminance" maskUnits="userSpaceOnUse" x="-9" y="-2" width="256" height="190">
<path d="M-8.40723 172.153L2.78965 -1.02975L246.656 14.7372L235.459 187.918L-8.40723 172.153Z" fill="white"/>
</mask>
<g mask="url(#mask14_1_2111)">
<mask id="mask15_1_2111" style="mask-type:luminance" maskUnits="userSpaceOnUse" x="19" y="-16" width="256" height="190">
<path d="M19.4517 157.302L30.6485 -15.8807L274.515 -0.11375L263.318 173.067L19.4517 157.302Z" fill="white"/>
</mask>
<g mask="url(#mask15_1_2111)">
<path d="M206.225 134.458C207.608 135.652 209.669 136.326 211.311 137.08C213.2 137.949 215.051 138.92 217.166 138.899C217.422 138.894 217.585 138.608 217.41 138.399C216.02 136.745 213.942 135.936 212.014 135.046C210.578 134.384 208.102 132.715 206.501 133.07C205.8 133.222 205.745 134.043 206.225 134.458ZM187.919 125.744C190.534 127.365 193.179 128.564 196.146 129.395C196.566 129.512 196.803 128.998 196.478 128.73C194.096 126.782 191.611 125.239 188.851 123.881C187.778 123.351 186.921 125.126 187.919 125.744ZM147.782 114.813C145.091 111.755 141.181 110.174 137.409 108.834C136.456 108.495 135.979 109.927 136.899 110.307C140.508 111.799 143.77 113.994 147.423 115.345C147.738 115.463 147.999 115.059 147.782 114.813ZM121.759 100.153C122.935 101.4 124.554 102.221 126.02 103.083C127.385 103.89 128.725 104.686 130.314 104.914C130.784 104.981 130.978 104.391 130.729 104.07C129.728 102.765 128.303 101.995 126.897 101.188C125.513 100.392 124.072 99.4216 122.511 99.0366C121.884 98.8775 121.245 99.6084 121.759 100.153ZM106.942 89.9933C110.007 91.5958 112.9 93.4889 116.172 94.6325C116.449 94.7294 116.742 94.3535 116.509 94.1322C113.938 91.6996 110.735 90.2539 107.535 88.8104C106.855 88.5038 106.274 89.6405 106.942 89.9933ZM90.7211 78.695C93.0776 80.2421 95.365 82.0568 98.1134 82.8085C98.4824 82.9099 98.8121 82.4857 98.54 82.1744C96.6677 80.0346 94.053 78.7757 91.6388 77.3346C90.7373 76.795 89.8288 78.1139 90.7211 78.695ZM55.5395 60.3594C53.9923 59.7368 52.369 58.9482 50.672 59.0981C50.4253 59.1189 50.3676 59.4463 50.5014 59.6077C51.5136 60.8528 53.1438 61.4431 54.5757 62.0795C56.2797 62.8427 57.8038 63.4722 59.6715 63.6036C60.0081 63.6267 60.3055 63.1517 60.0196 62.8981C58.6454 61.6829 57.2389 61.0465 55.5395 60.3594ZM44.1097 55.3097C42.8808 54.2514 41.352 53.7349 39.8902 53.0685C38.1378 52.2661 36.3969 51.4037 34.6998 50.4883C33.9758 50.0987 33.3095 51.0463 33.9804 51.5582C36.6183 53.5781 40.3121 56.2943 43.7915 56.2436C44.3196 56.2343 44.4948 55.6418 44.1097 55.3097ZM194.574 170.177C196.34 171.12 198.634 171.108 200.262 169.863C201.625 168.816 203.458 165.934 202.379 164.272C202.245 164.067 201.991 163.93 201.751 164.062C200.783 164.597 200.741 165.487 200.347 166.458C199.471 168.618 197.241 169.693 195.159 168.307C193.677 167.322 193.082 165.418 193.22 163.711C193.363 161.918 194.447 160.684 195.049 159.086C195.286 158.454 194.525 158.111 194.064 158.424C190.259 161.002 190.525 168.014 194.574 170.177ZM177.538 146.513C178.451 142.936 181.119 140.063 182.42 136.681C182.602 136.208 181.97 135.786 181.601 136.13C179.212 138.362 177.499 142.039 176.36 145.095C175.495 147.414 175.403 149.861 177.312 151.724C181.606 155.909 187.066 150.744 188.452 146.48C188.751 145.556 187.479 144.899 186.921 145.715C186.047 146.999 185.371 148.406 184.398 149.625C183.261 151.048 182.138 151.701 180.294 151.309C178.06 150.834 176.953 148.821 177.538 146.513ZM46.4985 24.8042C46.5908 25.8349 47.9765 25.662 48.3178 24.9218C48.7997 23.8796 48.6936 22.6714 49.9226 22.2656C51.4836 21.7537 53.0239 22.6921 53.4389 24.207C53.7502 25.353 53.7963 26.6189 53.6418 27.7925C53.4897 28.9662 53.1461 29.8285 53.3813 31.0068C53.4228 31.2051 53.658 31.3273 53.8424 31.2304C57.0475 29.5034 56.471 22.4154 53.4712 20.6953C50.1117 18.7654 46.1296 20.7876 46.4985 24.8042ZM60.271 43.2182C60.3125 44.0252 61.3224 44.265 61.666 43.4995C62.0118 42.7132 62.3761 41.9293 62.7497 41.1522C65.3045 39.2269 67.1353 39.4137 68.2351 41.7102C69.0468 43.3773 68.5902 45.4179 68.0368 47.055C67.2229 49.4715 65.6158 51.2608 64.2876 53.3752C64.0594 53.7395 64.4513 54.2491 64.8572 54.0254C69.0352 51.7335 72.3348 44.4841 69.5148 40.14C66.7018 35.8051 60.0265 38.1593 60.271 43.2182ZM92.8217 97.1066C91.6111 99.032 90.3453 100.99 89.0448 102.862C88.5191 103.618 87.3916 105.744 86.4969 106.113C82.7985 107.642 83.3657 102.048 83.6631 100.699C84.4724 97.0305 88.1663 93.2352 87.2671 89.4007C87.1887 89.0733 86.7206 88.9488 86.5315 89.2578C85.5446 90.8464 85.1042 92.6865 84.2995 94.3835C83.5386 95.986 82.6509 97.5401 82.1321 99.2441C81.3573 101.787 81.0945 104.972 82.9184 107.155C87.5345 112.68 92.4113 100.466 93.3382 97.3626C93.4304 97.0582 93.0038 96.8161 92.8217 97.1066ZM104.005 120.639C104.09 120.291 103.721 119.798 103.338 120.056C102.522 120.605 101.989 121.368 101.229 121.974C100.025 122.934 99.3909 123.144 97.9082 122.71C95.9852 122.15 95.6301 120.84 95.7616 118.822C95.9714 115.599 97.7722 112.625 97.816 109.438C97.8229 109.094 97.3549 108.762 97.0759 109.076C95.1482 111.236 94.5026 114.654 94.0045 117.439C93.6333 119.523 93.6679 121.894 95.1436 123.577C97.9382 126.771 103.092 124.266 104.005 120.639ZM115.803 135.127C117.288 133.621 118.748 130.914 118.162 128.772C118.061 128.398 117.521 128.096 117.208 128.454C115.151 130.78 115.296 135.272 111.319 135.747C108.289 136.109 107.297 133.243 108.061 130.838C108.593 129.155 109.439 127.799 109.502 125.998C109.518 125.569 108.863 125.401 108.734 125.844C108.017 128.341 106.008 130.826 106.437 133.543C106.746 135.484 108.395 136.847 110.286 137.147C112.34 137.474 114.372 136.579 115.803 135.127ZM137.639 133.718C139.011 131.839 141.285 128.502 140.644 126.109C140.561 125.797 140.199 125.56 139.887 125.742C138.744 126.411 138.365 127.515 137.803 128.67C136.975 130.374 136.12 132.051 134.886 133.506C133.782 134.811 131.321 137.354 129.401 137.2C125.891 136.916 129.002 131.659 129.465 130.379C129.638 129.909 128.997 129.634 128.709 130.003C127.406 131.668 125.409 135.108 126.205 137.329C127 139.535 129.684 138.904 131.361 138.355C133.98 137.502 136.025 135.934 137.639 133.718ZM170.935 124.137C167.527 126.305 163.925 128.364 160.888 131.043C160.383 131.49 160.937 132.184 161.511 131.965C165.606 130.411 169.353 127.873 173.042 125.539C176.107 123.602 179.655 121.811 182.012 119.005C182.341 118.61 181.878 117.926 181.391 118.075C177.589 119.233 174.26 122.028 170.935 124.137ZM163.065 112.502C159.341 114.762 155.451 116.893 152.073 119.662C151.686 119.98 152.117 120.508 152.535 120.347C156.941 118.633 160.999 115.991 165.041 113.561C168.329 111.585 172.41 109.798 174.931 106.849C175.191 106.54 174.822 106.051 174.456 106.143C170.395 107.167 166.621 110.344 163.065 112.502ZM75.4269 57.2374C72.3348 58.7661 69.1598 60.3571 66.3974 62.4346C65.8717 62.8312 66.462 63.6128 67.0223 63.3592C70.308 61.8628 73.4162 59.9513 76.6674 58.3672C79.5565 56.9538 82.8054 55.953 85.4155 54.0646C85.7614 53.8133 85.4293 53.3314 85.0743 53.3798C81.6986 53.8433 78.4451 55.7455 75.4269 57.2374ZM82.0652 70.3088C85.4063 68.7893 89.1832 66.8133 92.937 66.9562C93.3958 66.9747 93.4327 67.5534 93.1007 67.7633C89.5682 69.9999 85.1135 71.1758 81.2859 72.8844C77.5689 74.5446 73.8935 76.3108 70.0406 77.6389C69.3742 77.8695 69.139 76.8596 69.6624 76.5483C73.6168 74.1802 77.871 72.2157 82.0652 70.3088Z" fill="#484D99"/>
</g>
</g>
</g>
</svg>
