<svg width="127" height="222" viewBox="0 0 127 222" fill="none" xmlns="http://www.w3.org/2000/svg">
<mask id="mask0_1_2112" style="mask-type:luminance" maskUnits="userSpaceOnUse" x="0" y="0" width="127" height="222">
<path d="M0 0.942169H126.737V221.034H0V0.942169Z" fill="white"/>
</mask>
<g mask="url(#mask0_1_2112)">
<path d="M108.676 213.158C89.8968 220.923 65.7992 222.527 45.8442 219.967C32.2826 218.23 15.683 214.376 6.49166 203.359C-5.77534 188.653 1.90015 169.335 8.64856 153.999C17.1425 134.693 24.4944 114.878 31.0465 94.8313C36.7844 77.2775 43.3616 58.5982 41.7809 40.1487C41.3425 35.0143 41.6724 30.9865 42.7331 27.8441C42.1944 27.4975 41.6744 27.1342 41.1817 26.7458C27.5429 15.907 43.6873 4.36661 54.7328 2.04685C65.486 -0.208193 84.1652 0.472495 92.3878 8.98945C99.9672 16.8424 96.6139 23.8769 90.1369 28.0821C90.9199 34.1394 89.3706 41.9778 89.1221 46.4043C86.8462 87.0263 101.763 125.168 120.041 161.065C129.625 179.888 131.373 203.775 108.676 213.158Z" fill="#FFE8EE"/>
</g>
<path d="M42.7123 68.2439C42.2244 67.475 43.3069 66.7352 43.935 67.3087C48.9642 71.9036 58.0049 72.2943 64.5018 72.419C68.348 72.4959 72.2151 72.1883 75.921 71.1159C78.8564 70.266 81.4296 68.6014 84.365 67.8241C85.2549 67.5872 85.6904 68.6097 85.1942 69.231C80.366 75.2889 69.0033 75.6152 61.9746 74.973C55.997 74.4265 46.3009 73.8986 42.7123 68.2439ZM111.337 185.521C108.144 184.2 105.518 181.978 102.407 180.484C98.9626 178.83 95.2232 177.824 91.4649 177.157C82.5749 175.577 73.2389 175.658 64.2275 175.43C48.223 175.02 28.0875 173.946 15.0792 184.582C14.0909 185.391 12.5583 184.378 13.2472 183.179C16.9468 176.725 25.5562 174.48 32.3839 173.289C42.2852 171.564 52.3937 171.174 62.4269 171.236C72.4224 171.294 82.7466 171.294 92.6144 173.013C99.3813 174.187 109.618 176.88 112.75 183.695C113.143 184.551 112.465 185.989 111.337 185.521ZM82.242 181.646C81.6725 183.986 76.4277 185.251 76.145 182.217C76.0404 181.078 76.4738 179.287 77.4473 178.574C77.8096 178.308 78.2492 178.235 78.6345 178.327C79.1768 178.096 79.851 178.331 80.3325 178.578C81.4296 179.141 82.5665 180.324 82.242 181.646ZM32.9555 145.623C33.0413 145.639 33.1062 145.677 33.1586 145.727C33.906 145.743 34.7959 146.325 35.0073 146.969C35.3675 148.071 34.2578 148.998 33.257 149.135C32.1285 149.291 30.9392 148.513 30.9015 147.318C30.8701 146.209 31.8877 145.419 32.9555 145.623ZM42.7877 154.324C42.6453 154.253 42.5699 154.081 42.6055 153.919C42.8337 152.892 43.9957 152.67 44.9149 152.861C45.968 153.077 46.8118 153.842 47.375 154.723C48.5391 156.552 48.2209 159.06 46.0329 159.931C44.0711 160.71 41.9774 159.428 41.5775 157.412C41.3325 156.159 41.8811 155.045 42.7877 154.324ZM53.3589 155.941C53.4406 154.723 54.343 153.914 55.438 153.503C55.6976 153.405 55.8965 153.565 55.9698 153.773C58.0321 154.638 58.1117 158.576 55.371 158.397C54.1106 158.314 53.2794 157.146 53.3589 155.941ZM59.6967 161.259C61.2125 160.785 62.965 162.454 63.3042 163.817C63.7292 165.534 62.5441 167.394 60.8231 167.807C59.012 168.239 57.0355 166.741 56.9727 164.891C56.9225 163.422 58.03 161.196 59.6967 161.259ZM75.1673 148.821C75.1442 148.653 75.1673 148.474 75.2573 148.306C75.408 148.017 75.6028 147.794 75.8247 147.618C75.8582 147.566 75.8917 147.51 75.9231 147.462C76.1115 147.163 76.413 147.117 76.6601 147.217C78.0943 146.849 80.0205 147.655 80.9334 148.613C82.5414 150.298 82.5309 152.992 80.8811 154.64C79.449 156.074 75.9315 156.73 74.6271 154.762C73.553 153.141 74.2565 150.683 75.1673 148.821ZM83.6595 156.25C83.7683 155.569 84.185 155.028 84.7168 154.623C84.8319 154.434 85.0183 154.28 85.236 154.212C86.084 153.948 87.0555 154.607 87.4303 155.338C88.274 156.984 86.6388 159.066 84.8152 158.399C83.9254 158.075 83.5129 157.144 83.6595 156.25ZM89.3356 167.138C89.5408 165.899 90.4055 164.721 91.7873 164.777C92.1831 164.792 92.4364 165.137 92.472 165.477C92.9431 165.847 93.2927 166.398 93.3911 166.986C93.6005 168.229 92.6793 169.453 91.4461 169.69C90.8054 169.813 90.104 169.671 89.6475 169.189C89.1262 168.638 89.2225 167.824 89.3356 167.138ZM114.902 176.635C111.115 162.695 105.581 149.047 100.382 135.579C94.7186 120.909 84.1117 118.619 69.1164 117.318C57.693 116.329 40.5369 115.47 31.1276 123.309C22.2565 130.697 17.4618 150.093 13.467 160.7C9.02828 172.489 6.13474 186.099 15.2467 196.563C24.0718 206.698 39.2744 208.893 51.9394 209.857C72.0036 211.384 123.884 209.684 114.902 176.635Z" fill="#F196A4"/>
<path d="M88.4903 28.6085C85.4062 28.3607 82.3793 30.0609 79.3769 30.7678C75.2328 31.7469 70.9436 32.1247 66.6851 32.1613C62.6696 32.1938 58.6889 31.7936 54.7408 31.0481C51.4259 30.4204 48.1784 29.157 44.8247 28.8665C44.2978 28.8198 44.2528 29.5003 44.5837 29.7522C50.4578 34.1905 60.3126 34.8101 67.4572 34.6841C71.1765 34.6171 74.8549 34.1011 78.4925 33.3414C81.9014 32.6325 86.403 32.0719 88.8069 29.3723C89.0765 29.0696 88.8825 28.641 88.4903 28.6085ZM47.7781 11.6412C51.2462 2.67912 78.4108 6.78435 83.854 11.564C91.9829 18.704 69.2014 21.0684 66.1643 21.0684C60.8682 21.0704 44.3447 20.5118 47.7781 11.6412Z" fill="#484D99"/>
<path d="M19.8133 181.991C19.8258 181.246 18.89 181.089 18.5115 181.634C17.9667 182.423 17.7297 183.473 17.5383 184.406C17.3637 185.274 17.189 186.18 17.7525 186.937C17.9355 187.185 18.2412 187.254 18.4824 187.031C19.1562 186.415 19.1998 185.591 19.3496 184.731C19.5076 183.825 19.7987 182.911 19.8133 181.991ZM34.5173 213.341C32.2403 212.496 29.9923 211.496 27.9337 210.193C24.3382 207.916 21.8595 204.712 20.0275 200.896C19.8216 200.464 19.1333 200.68 19.1458 201.137C19.2602 205.501 22.2255 209.13 25.5922 211.63C27.68 213.181 30.0027 214.324 32.4045 215.289C34.6088 216.174 37.0251 217.298 39.4332 216.901C39.9094 216.822 40.0175 216.155 39.7077 215.849C38.2999 214.454 36.3264 214.014 34.5173 213.341ZM45.7007 74.8386C46.8694 73.3897 46.7737 71.4375 46.9255 69.6342C47.1439 67.032 47.3435 64.4235 47.4454 61.8149C47.6305 57.1536 48.221 51.8821 47.2998 47.292C47.1792 46.6944 46.2559 46.7133 46.1228 47.292C45.63 49.4665 45.6862 51.7626 45.5427 53.9852C45.3826 56.4491 45.2183 58.915 45.0415 61.3809C44.8752 63.6958 44.7358 66.015 44.5591 68.3299C44.4031 70.3806 43.7356 72.8361 44.7442 74.7149C44.9168 75.0378 45.4553 75.1447 45.7007 74.8386ZM21.2232 175.205C22.4397 173.721 22.972 171.856 23.573 170.047C24.2696 167.956 24.9454 165.857 25.6338 163.765C26.9126 159.854 28.8798 155.467 29.0649 151.328C29.0878 150.816 28.4223 150.716 28.1707 151.085C25.9186 154.385 24.8727 158.969 23.5938 162.739C22.9325 164.689 22.265 166.635 21.61 168.587C20.9404 170.573 20.0524 172.63 20.146 174.756C20.1689 175.258 20.853 175.658 21.2232 175.205ZM31.8576 130.267C34.0057 127.076 34.9935 123.046 36.2557 119.437C37.5097 115.851 38.7532 112.261 39.9322 108.648C41.0864 105.101 42.1802 101.532 43.0619 97.9041C43.8853 94.5135 45.054 90.5651 44.6111 87.0486C44.5508 86.5789 43.8271 86.1889 43.5755 86.7656C42.1656 90.0325 41.7476 93.8425 40.8035 97.2772C39.8116 100.873 38.6804 104.434 37.4785 107.967C36.2536 111.565 34.9623 115.14 33.7104 118.73C32.4544 122.337 30.7742 126.044 30.4644 129.888C30.402 130.689 31.4771 130.829 31.8576 130.267ZM93.9924 144.872C90.2577 147.944 84.2251 148.416 79.5816 149.11C74.1168 149.927 68.5854 150.292 63.0602 150.152C52.642 149.885 40.265 148.556 31.1527 143.09C30.3147 142.588 30.9073 141.431 31.7807 141.588C37.0626 142.534 42.1594 144.367 47.4516 145.333C52.6004 146.27 57.8303 146.78 63.0602 146.853C68.55 146.929 74.0419 146.524 79.461 145.627C83.8841 144.897 88.7917 142.647 93.2334 143.027C94.059 143.098 94.7826 144.224 93.9924 144.872Z" fill="#FEFEE2"/>
</svg>
