<svg width="181" height="162" viewBox="0 0 181 162" fill="none" xmlns="http://www.w3.org/2000/svg">
<mask id="mask0_1_1963" style="mask-type:luminance" maskUnits="userSpaceOnUse" x="1" y="101" width="66" height="60">
<path d="M1.05322 101.581H66.3608V160.569H1.05322V101.581Z" fill="white"/>
</mask>
<g mask="url(#mask0_1_1963)">
<mask id="mask1_1_1963" style="mask-type:luminance" maskUnits="userSpaceOnUse" x="-21" y="-13" width="216" height="177">
<path d="M172.405 -12.9478L194.25 134.758L1.21769 163.305L-20.627 15.5996L172.405 -12.9478Z" fill="white"/>
</mask>
<g mask="url(#mask1_1_1963)">
<mask id="mask2_1_1963" style="mask-type:luminance" maskUnits="userSpaceOnUse" x="-21" y="-13" width="216" height="177">
<path d="M172.405 -12.9478L194.25 134.758L1.21769 163.305L-20.627 15.5996L172.405 -12.9478Z" fill="white"/>
</mask>
<g mask="url(#mask2_1_1963)">
<path d="M18.1578 158.779C17.8616 159.026 17.5427 159.24 17.2032 159.425C16.8638 159.608 16.512 159.756 16.1417 159.871C15.7734 159.985 15.399 160.063 15.0143 160.102C14.6316 160.143 14.2469 160.145 13.8622 160.11C13.4795 160.075 13.1009 160.001 12.7327 159.892C12.3624 159.783 12.0064 159.637 11.6649 159.458C11.3234 159.277 11.0025 159.067 10.7042 158.824C10.4038 158.579 10.1302 158.31 9.88535 158.014L2.88017 149.579C2.63535 149.282 2.41933 148.965 2.23623 148.626C2.05313 148.287 1.90294 147.933 1.78979 147.564C1.67458 147.196 1.59846 146.82 1.55731 146.437C1.51822 146.052 1.51617 145.67 1.55114 145.285C1.58612 144.9 1.65812 144.524 1.76922 144.155C1.87825 143.785 2.02432 143.429 2.20331 143.088C2.3823 142.746 2.5942 142.427 2.83697 142.127C3.07973 141.827 3.34924 141.555 3.64549 141.308L49.4312 103.281C49.7274 103.034 50.0463 102.82 50.3858 102.635C50.7232 102.452 51.077 102.301 51.4453 102.188C51.8136 102.075 52.1901 101.997 52.5748 101.958C52.9574 101.917 53.3422 101.915 53.7248 101.95C54.1095 101.987 54.486 102.059 54.8563 102.168C55.2267 102.279 55.5805 102.423 55.922 102.602C56.2635 102.783 56.5845 102.993 56.8828 103.235C57.1832 103.478 57.4568 103.748 57.7016 104.046L64.7068 112.479C64.9516 112.775 65.1676 113.092 65.3507 113.431C65.5359 113.771 65.684 114.125 65.7992 114.493C65.9124 114.861 65.9906 115.238 66.0297 115.62C66.0708 116.005 66.0729 116.388 66.0358 116.773C66.0009 117.157 65.9288 117.534 65.8177 117.902C65.7087 118.272 65.5647 118.628 65.3837 118.97C65.2047 119.311 64.9928 119.63 64.75 119.931C64.5072 120.231 64.2377 120.502 63.9415 120.749L18.1578 158.779Z" fill="#F196A4"/>
</g>
</g>
</g>
<mask id="mask3_1_1963" style="mask-type:luminance" maskUnits="userSpaceOnUse" x="0" y="141" width="19" height="21">
<path d="M0 141.082H18.4336V161.622H0V141.082Z" fill="white"/>
</mask>
<g mask="url(#mask3_1_1963)">
<mask id="mask4_1_1963" style="mask-type:luminance" maskUnits="userSpaceOnUse" x="-21" y="-13" width="216" height="177">
<path d="M172.406 -12.9478L194.25 134.758L1.21793 163.305L-20.6267 15.5996L172.406 -12.9478Z" fill="white"/>
</mask>
<g mask="url(#mask4_1_1963)">
<mask id="mask5_1_1963" style="mask-type:luminance" maskUnits="userSpaceOnUse" x="-21" y="-13" width="216" height="177">
<path d="M172.406 -12.9478L194.25 134.758L1.21793 163.305L-20.6267 15.5996L172.406 -12.9478Z" fill="white"/>
</mask>
<g mask="url(#mask5_1_1963)">
<path d="M9.88573 158.014L2.88055 149.579C2.63573 149.282 2.41971 148.963 2.2366 148.624C2.05145 148.287 1.90332 147.933 1.79017 147.564C1.67496 147.194 1.59884 146.82 1.55769 146.435C1.5186 146.052 1.51654 145.668 1.55152 145.285C1.58649 144.9 1.6585 144.524 1.76959 144.153C1.87863 143.783 2.02264 143.429 2.20369 143.088C2.38267 142.746 2.59458 142.425 2.83734 142.127C3.08011 141.827 3.34962 141.553 3.64587 141.306L2.13991 142.559C1.84366 142.806 1.57415 143.079 1.33138 143.378C1.08862 143.678 0.878773 143.999 0.697728 144.339C0.518741 144.68 0.374729 145.036 0.263633 145.406C0.154595 145.775 0.0825887 146.153 0.0455572 146.536C0.0105823 146.92 0.0126405 147.303 0.0537865 147.688C0.0928757 148.071 0.171054 148.447 0.284207 148.815C0.397359 149.184 0.547543 149.537 0.730645 149.877C0.913747 150.216 1.12977 150.533 1.37664 150.829L8.37977 159.262C8.62665 159.561 8.90027 159.83 9.19858 160.073C9.49895 160.316 9.81989 160.528 10.1614 160.707C10.5009 160.886 10.8568 161.032 11.2271 161.141C11.5974 161.25 11.9739 161.324 12.3566 161.359C12.7413 161.394 13.126 161.392 13.5087 161.353C13.8913 161.311 14.2678 161.235 14.6361 161.12C15.0043 161.007 15.3582 160.857 15.6977 160.674C16.0371 160.491 16.3539 160.275 16.6502 160.028L18.1582 158.777C17.862 159.024 17.5451 159.24 17.2057 159.423C16.8662 159.608 16.5124 159.756 16.1441 159.871C15.7758 159.984 15.3994 160.063 15.0146 160.102C14.632 160.143 14.2473 160.145 13.8625 160.11C13.4799 160.073 13.1013 160.001 12.7331 159.892C12.3627 159.781 12.0068 159.637 11.6653 159.458C11.3238 159.277 11.0029 159.065 10.7045 158.822C10.4042 158.579 10.1305 158.31 9.88573 158.014Z" fill="#2E2E30"/>
</g>
</g>
</g>
<mask id="mask6_1_1963" style="mask-type:luminance" maskUnits="userSpaceOnUse" x="74" y="0" width="107" height="96">
<path d="M74.7878 0.98642H180.123V95.7878H74.7878V0.98642Z" fill="white"/>
</mask>
<g mask="url(#mask6_1_1963)">
<mask id="mask7_1_1963" style="mask-type:luminance" maskUnits="userSpaceOnUse" x="-21" y="-13" width="216" height="177">
<path d="M172.406 -12.9478L194.25 134.758L1.21793 163.305L-20.6267 15.5996L172.406 -12.9478Z" fill="white"/>
</mask>
<g mask="url(#mask7_1_1963)">
<mask id="mask8_1_1963" style="mask-type:luminance" maskUnits="userSpaceOnUse" x="-21" y="-13" width="216" height="177">
<path d="M172.406 -12.9478L194.25 134.758L1.21793 163.305L-20.6267 15.5996L172.406 -12.9478Z" fill="white"/>
</mask>
<g mask="url(#mask8_1_1963)">
<mask id="mask9_1_1963" style="mask-type:luminance" maskUnits="userSpaceOnUse" x="-170" y="-159" width="513" height="911">
<path d="M342.865 -158.596H-169.062V751.497H342.865V-158.596Z" fill="black" fill-opacity="0.2"/>
</mask>
<g mask="url(#mask9_1_1963)">
<mask id="mask10_1_1963" style="mask-type:luminance" maskUnits="userSpaceOnUse" x="74" y="0" width="107" height="96">
<path d="M180.123 0.98642H74.7881V95.7878H180.123V0.98642Z" fill="white"/>
</mask>
<g mask="url(#mask10_1_1963)">
<mask id="mask11_1_1963" style="mask-type:luminance" maskUnits="userSpaceOnUse" x="80" y="8" width="95" height="77">
<path d="M80.5815 8.35986H174.856V84.201H80.5815V8.35986Z" fill="white"/>
</mask>
<g mask="url(#mask11_1_1963)">
<mask id="mask12_1_1963" style="mask-type:luminance" maskUnits="userSpaceOnUse" x="-21" y="-13" width="216" height="177">
<path d="M172.406 -12.9478L194.25 134.758L1.21818 163.305L-20.6265 15.5996L172.406 -12.9478Z" fill="white"/>
</mask>
<g mask="url(#mask12_1_1963)">
<mask id="mask13_1_1963" style="mask-type:luminance" maskUnits="userSpaceOnUse" x="-21" y="-13" width="216" height="177">
<path d="M172.406 -12.9478L194.25 134.758L1.21818 163.305L-20.6265 15.5996L172.406 -12.9478Z" fill="white"/>
</mask>
<g mask="url(#mask13_1_1963)">
<path d="M88.272 46.2454C89.136 45.5274 90.0248 44.8423 90.9382 44.1881C91.8517 43.5339 92.7878 42.9125 93.7444 42.3262C94.7031 41.7399 95.6804 41.1885 96.6782 40.6721C97.676 40.1557 98.6923 39.6764 99.723 39.2341C100.756 38.7897 101.803 38.3844 102.865 38.0161C103.926 37.6479 105 37.3187 106.084 37.0286C107.171 36.7365 108.263 36.4855 109.368 36.2736C110.47 36.0617 111.579 35.8889 112.694 35.7572C113.812 35.6255 114.931 35.5329 116.052 35.4815C117.173 35.4301 118.297 35.4177 119.42 35.4465C120.543 35.4774 121.664 35.5453 122.781 35.6543C123.899 35.7654 125.012 35.9135 126.121 36.1049C127.227 36.2941 128.326 36.5225 129.416 36.792C130.507 37.0595 131.587 37.3681 132.657 37.7137C133.724 38.0614 134.78 38.444 135.821 38.8679C136.862 39.2896 137.886 39.7484 138.894 40.2442C139.903 40.74 140.892 41.2708 141.861 41.8386C142.83 42.4064 143.778 43.0072 144.706 43.6429C145.632 44.2766 146.535 44.9452 147.414 45.6447C148.292 46.3462 149.144 47.0766 149.969 47.8378C150.796 48.599 151.594 49.389 152.362 50.2078C153.131 51.0266 153.87 51.8722 154.579 52.7445C155.287 53.6168 155.962 54.5138 156.606 55.4334C157.25 56.3551 157.861 57.2973 158.437 58.2622C159.013 59.2251 159.554 60.2105 160.058 61.2124C160.564 62.2164 161.033 63.2368 161.463 64.2737C161.895 65.3106 162.29 66.3619 162.646 67.4276C163.002 68.4933 163.321 69.5693 163.599 70.6576C163.879 71.7459 164.117 72.8425 164.317 73.9493C164.516 75.0541 164.677 76.165 164.796 77.2822C164.917 78.3993 164.996 79.5185 165.035 80.6418C165.076 81.7651 165.074 82.8884 165.033 84.0096C165.594 83.2834 166.133 82.5407 166.65 81.7815C167.168 81.0224 167.662 80.2488 168.135 79.4609C168.606 78.6729 169.055 77.8726 169.479 77.0579C169.904 76.2432 170.306 75.4182 170.682 74.5788C171.057 73.7415 171.408 72.8939 171.735 72.036C172.063 71.176 172.363 70.3099 172.639 69.4335C172.912 68.5571 173.163 67.6724 173.385 66.7816C173.61 65.8908 173.807 64.9958 173.978 64.0927C174.149 63.1895 174.293 62.2822 174.41 61.3729C174.527 60.4615 174.618 59.548 174.682 58.6325C174.745 57.715 174.782 56.7974 174.791 55.8798C174.801 54.9602 174.784 54.0427 174.739 53.1251C174.696 52.2075 174.624 51.2941 174.525 50.3806C174.428 49.4672 174.303 48.5578 174.151 47.6506C174.001 46.7453 173.822 45.8442 173.618 44.9493C173.412 44.0544 173.182 43.1656 172.927 42.283C172.669 41.4025 172.388 40.5281 172.079 39.662C171.77 38.7979 171.437 37.9421 171.079 37.0965C170.721 36.2509 170.339 35.4157 169.929 34.5927C169.522 33.7698 169.092 32.9592 168.637 32.163C168.18 31.3648 167.703 30.581 167.201 29.8115C166.701 29.0421 166.177 28.2871 165.631 27.5485C165.086 26.8099 164.518 26.0878 163.932 25.3821C163.344 24.6765 162.735 23.9893 162.107 23.3186C161.478 22.6479 160.83 21.9978 160.163 21.3662C159.496 20.7346 158.813 20.1236 158.11 19.5311C157.406 18.9406 156.688 18.3708 155.952 17.8215C155.215 17.2722 154.464 16.7434 153.697 16.2394C152.929 15.7353 152.148 15.2519 151.351 14.7931C150.557 14.3343 149.749 13.9002 148.928 13.4887C148.107 13.0773 147.274 12.6884 146.43 12.3264C145.587 11.9643 144.733 11.6269 143.869 11.3141C143.005 11.0014 142.133 10.7155 141.252 10.4542C140.372 10.1929 139.485 9.95837 138.59 9.75058C137.695 9.54074 136.796 9.35763 135.891 9.20334C134.986 9.04698 134.076 8.91737 133.163 8.8145C132.251 8.71164 131.336 8.63757 130.418 8.5882C129.501 8.53882 128.583 8.51825 127.666 8.52236C126.746 8.52853 125.828 8.55939 124.913 8.61906C123.995 8.67872 123.082 8.76513 122.17 8.87828C121.259 8.99143 120.352 9.12927 119.449 9.29592C118.545 9.46256 117.648 9.65595 116.756 9.87402C115.865 10.0942 114.978 10.339 114.102 10.6105C113.223 10.8801 112.355 11.1784 111.495 11.4993C110.635 11.8223 109.785 12.17 108.946 12.5403C108.107 12.9127 107.277 13.3098 106.461 13.7315C105.644 14.1512 104.842 14.5956 104.052 15.0646C103.262 15.5317 102.486 16.0234 101.725 16.5377C100.964 17.05 100.217 17.5869 99.4864 18.1445C98.7581 18.702 98.0442 19.2801 97.3489 19.8788C96.6535 20.4795 95.9746 21.0988 95.3162 21.7365C94.6558 22.3764 94.016 23.0347 93.3947 23.7116C92.7754 24.3884 92.1747 25.0838 91.5945 25.7956C91.0144 26.5075 90.4568 27.2358 89.9199 27.9805C89.3809 28.7273 88.8665 29.4865 88.3748 30.2621C87.8831 31.0377 87.4141 31.8256 86.9676 32.6301C86.5212 33.4324 86.0994 34.2471 85.7024 35.0762C85.3032 35.9033 84.9309 36.7426 84.5811 37.5923C84.2334 38.442 83.9084 39.2999 83.6101 40.1681C83.3138 41.0383 83.0402 41.9147 82.7933 42.7994C82.5464 43.684 82.3263 44.5749 82.1329 45.4719C81.9375 46.3709 81.7708 47.272 81.6289 48.1814C81.489 49.0886 81.3738 50 81.2853 50.9135C81.1989 51.8269 81.1372 52.7445 81.1042 53.6621C83.2212 50.9258 85.6098 48.455 88.272 46.2454Z" fill="white"/>
</g>
</g>
</g>
</g>
</g>
</g>
</g>
</g>
<mask id="mask14_1_1963" style="mask-type:luminance" maskUnits="userSpaceOnUse" x="75" y="3" width="106" height="105">
<path d="M75.8413 3.09314H180.123V107.901H75.8413V3.09314Z" fill="white"/>
</mask>
<g mask="url(#mask14_1_1963)">
<mask id="mask15_1_1963" style="mask-type:luminance" maskUnits="userSpaceOnUse" x="-21" y="-13" width="216" height="177">
<path d="M172.406 -12.9478L194.25 134.758L1.21793 163.305L-20.6267 15.5996L172.406 -12.9478Z" fill="white"/>
</mask>
<g mask="url(#mask15_1_1963)">
<mask id="mask16_1_1963" style="mask-type:luminance" maskUnits="userSpaceOnUse" x="-21" y="-13" width="216" height="177">
<path d="M172.406 -12.9478L194.25 134.758L1.21793 163.305L-20.6267 15.5996L172.406 -12.9478Z" fill="white"/>
</mask>
<g mask="url(#mask16_1_1963)">
<path d="M167.989 22.109C167.444 21.4527 166.884 20.8108 166.308 20.1833C165.73 19.5538 165.139 18.9407 164.535 18.342C163.928 17.7433 163.306 17.159 162.673 16.5892C162.037 16.0213 161.389 15.4679 160.726 14.931C160.064 14.394 159.389 13.8756 158.702 13.3715C158.015 12.8675 157.315 12.3799 156.604 11.9108C155.892 11.4417 155.17 10.9912 154.437 10.5571C153.703 10.123 152.96 9.70742 152.205 9.31035C151.452 8.91329 150.689 8.53474 149.915 8.17471C149.144 7.81468 148.362 7.47317 147.572 7.15222C146.784 6.83128 145.986 6.52886 145.183 6.247C144.379 5.96309 143.568 5.70181 142.752 5.45905C141.933 5.21628 141.112 4.99409 140.283 4.79042C139.456 4.5888 138.623 4.40776 137.785 4.24523C136.95 4.08476 136.109 3.94486 135.265 3.82348C134.422 3.70415 133.576 3.60334 132.726 3.52517C131.879 3.44699 131.027 3.38938 130.175 3.35235C129.326 3.31532 128.472 3.30092 127.62 3.30503C126.768 3.30915 125.917 3.33589 125.065 3.38321C124.215 3.43053 123.365 3.49636 122.518 3.58483C121.67 3.67329 120.825 3.78439 119.983 3.914C119.14 4.04361 118.302 4.1938 117.467 4.36455C116.632 4.53737 115.801 4.7287 114.976 4.9406C114.151 5.15251 113.33 5.38293 112.517 5.63598C111.703 5.88903 110.896 6.1606 110.094 6.45273C109.293 6.74487 108.501 7.05553 107.715 7.38676C106.93 7.71593 106.152 8.06567 105.384 8.43599C104.615 8.80425 103.858 9.19103 103.107 9.59838C102.358 10.0037 101.62 10.4295 100.891 10.8719C100.163 11.3142 99.445 11.773 98.7393 12.2503C98.0337 12.7296 97.3403 13.2234 96.6594 13.7357C95.9763 14.2479 95.3077 14.7746 94.6535 15.3198C93.9972 15.865 93.3553 16.4246 92.7278 17.0006C92.0983 17.5767 91.4852 18.1671 90.8865 18.774C90.2878 19.3809 89.7036 20.0002 89.1357 20.6359C88.5659 21.2696 88.0145 21.9197 87.4775 22.5801C86.9406 23.2425 86.4201 23.9173 85.916 24.6045C85.412 25.2916 84.9265 25.9911 84.4574 26.703C83.9863 27.4148 83.5357 28.1369 83.1016 28.8714C82.6675 29.6038 82.2519 30.3485 81.8549 31.1015C81.4578 31.8565 81.0793 32.6198 80.7192 33.3913C80.3592 34.1649 80.0177 34.9466 79.6967 35.7346C79.3758 36.5246 79.0734 37.3208 78.7915 38.1252C78.5097 38.9296 78.2463 39.7402 78.0036 40.557C77.7608 41.3737 77.5386 42.1966 77.337 43.0237C77.1333 43.8528 76.9523 44.6839 76.7918 45.5213C76.6293 46.3586 76.4894 47.198 76.368 48.0415C76.2487 48.8871 76.1499 49.7326 76.0697 50.5802C75.9915 51.4299 75.9339 52.2796 75.8969 53.1313C75.8598 53.983 75.8454 54.8348 75.8496 55.6865C75.8557 56.5403 75.8804 57.39 75.9277 58.2417C75.9751 59.0934 76.0429 59.9431 76.1314 60.7907C76.2199 61.6383 76.3289 62.4818 76.4585 63.3253C76.5881 64.1668 76.7383 65.0062 76.9111 65.8414C77.0819 66.6747 77.2732 67.5058 77.4851 68.3308C77.697 69.1578 77.9295 69.9767 78.1805 70.7914C78.4336 71.604 78.7051 72.4125 78.9973 73.2128C79.2894 74.0131 79.6001 74.8073 79.9313 75.5932C80.2625 76.377 80.6123 77.1547 80.9805 77.9241C81.3488 78.6915 81.7376 79.4506 82.1429 80.1995C82.5503 80.9484 82.9741 81.6869 83.4164 82.4152C83.8587 83.1435 84.3196 83.8615 84.7968 84.5672C85.2741 85.2729 85.7679 85.9662 86.2802 86.6492C86.7925 87.3302 87.3191 87.9988 87.8643 88.6551C88.4095 89.3093 88.9691 89.9512 89.5451 90.5807C90.1212 91.2082 90.7116 91.8213 91.3186 92.42C91.9255 93.0207 92.5447 93.605 93.1804 94.1728C93.8161 94.7406 94.4642 95.2941 95.1267 95.831C95.7871 96.368 96.4619 96.8885 97.149 97.3925C97.8382 97.8945 98.5377 98.3821 99.2475 98.8512C99.9593 99.3202 100.681 99.7729 101.416 100.205C102.15 100.639 102.893 101.055 103.648 101.452C104.401 101.851 105.164 102.229 105.938 102.589C106.709 102.947 107.491 103.289 108.279 103.61C109.069 103.933 109.865 104.233 110.67 104.517C111.474 104.799 112.285 105.062 113.101 105.305C113.918 105.546 114.741 105.77 115.568 105.972C116.397 106.173 117.231 106.356 118.066 106.517C118.903 106.677 119.745 106.819 120.588 106.939C121.432 107.06 122.277 107.159 123.127 107.237C123.974 107.315 124.824 107.373 125.676 107.41C126.528 107.447 127.379 107.463 128.231 107.457C129.085 107.453 129.937 107.426 130.786 107.381C131.638 107.334 132.488 107.266 133.335 107.177C134.183 107.089 135.028 106.98 135.87 106.85C136.711 106.718 137.551 106.568 138.386 106.397C139.221 106.227 140.05 106.035 140.875 105.823C141.702 105.612 142.521 105.379 143.336 105.126C144.151 104.875 144.957 104.601 145.757 104.311C146.56 104.019 147.352 103.706 148.138 103.377C148.924 103.046 149.699 102.696 150.469 102.328C151.236 101.958 151.995 101.571 152.744 101.164C153.493 100.758 154.234 100.335 154.962 99.8922C155.69 99.4499 156.406 98.989 157.112 98.5117C157.817 98.0344 158.513 97.5386 159.194 97.0284C159.875 96.5161 160.543 95.9874 161.2 95.4422C161.856 94.8991 162.498 94.3374 163.125 93.7614C163.753 93.1853 164.368 92.5949 164.967 91.988C165.565 91.3831 166.15 90.7618 166.717 90.1281C167.287 89.4924 167.839 88.8444 168.376 88.1819C168.913 87.5194 169.433 86.8446 169.937 86.1575C170.441 85.4704 170.927 84.7709 171.396 84.059C171.865 83.3472 172.317 82.6251 172.751 81.8927C173.186 81.1582 173.601 80.4155 173.998 79.6605C174.395 78.9075 174.774 78.1442 175.134 77.3707C175.494 76.5971 175.835 75.8174 176.156 75.0274C176.477 74.2394 176.78 73.4412 177.062 72.6368C177.345 71.8344 177.607 71.0238 177.85 70.205C178.092 69.3883 178.314 68.5674 178.516 67.7383C178.72 66.9113 178.901 66.078 179.063 65.2407C179.224 64.4034 179.364 63.564 179.485 62.7205C179.604 61.877 179.703 61.0294 179.783 60.1818C179.862 59.3321 179.919 58.4824 179.956 57.6307C179.993 56.7789 180.008 55.9272 180.004 55.0755C179.997 54.2237 179.973 53.372 179.925 52.5203C179.878 51.6706 179.81 50.8209 179.722 49.9733C179.633 49.1257 179.524 48.2801 179.395 47.4366C179.265 46.5952 179.115 45.7558 178.942 44.9226C178.771 44.0873 178.58 43.2562 178.368 42.4312C178.156 41.6062 177.924 40.7853 177.673 39.9706C177.42 39.158 177.148 38.3494 176.856 37.5492C176.564 36.7489 176.253 35.9547 175.922 35.1709C175.591 34.385 175.241 33.6073 174.873 32.8399C174.504 32.0705 174.115 31.3114 173.71 30.5625C173.303 29.8136 172.879 29.075 172.437 28.3468C171.994 27.6185 171.534 26.9005 171.056 26.1948C170.579 25.4891 170.083 24.7958 169.573 24.1128C169.061 23.4318 168.532 22.7632 167.989 22.109ZM93.8923 83.6537C93.4294 83.0962 92.9809 82.5284 92.5468 81.9503C92.1106 81.3701 91.6909 80.7817 91.2856 80.181C90.8783 79.5823 90.4874 78.9733 90.113 78.3541C89.7365 77.7348 89.3764 77.1073 89.0308 76.4696C88.6852 75.8339 88.356 75.1899 88.0433 74.5357C87.7285 73.8835 87.4323 73.2231 87.1504 72.5565C86.8706 71.8879 86.6052 71.2152 86.3584 70.5342C86.1094 69.8532 85.879 69.1681 85.665 68.4769C85.449 67.7856 85.2536 67.0882 85.0725 66.3866C84.8935 65.6851 84.729 64.9794 84.5849 64.2717C84.4389 63.5619 84.3113 62.848 84.2002 62.1341C84.0891 61.4182 83.9966 60.7002 83.9225 59.9801C83.8464 59.2601 83.7888 58.5379 83.7497 57.8138C83.7106 57.0917 83.688 56.3675 83.6838 55.6433C83.6797 54.9191 83.6921 54.197 83.7229 53.4728C83.7558 52.7486 83.8032 52.0265 83.8711 51.3065C83.9369 50.5843 84.0212 49.8663 84.1241 49.1483C84.2249 48.4324 84.3463 47.7185 84.4821 47.0067C84.6199 46.2969 84.7742 45.5892 84.945 44.8856C85.1178 44.182 85.3071 43.4825 85.5128 42.7892C85.7185 42.0938 85.9428 41.4066 86.1814 40.7236C86.4221 40.0385 86.6793 39.3617 86.9509 38.691C87.2245 38.0223 87.5146 37.3578 87.8191 36.7015C88.1256 36.0453 88.4465 35.3972 88.7839 34.7553C89.1213 34.1155 89.4752 33.4839 89.8435 32.8605C90.2117 32.2372 90.5964 31.622 90.9956 31.0192C91.3947 30.4144 91.8061 29.8198 92.2341 29.2355C92.662 28.6512 93.1043 28.0772 93.561 27.5156C94.0178 26.9539 94.4868 26.4026 94.9703 25.8636C95.4538 25.3225 95.9496 24.7958 96.4578 24.2815C96.968 23.7651 97.4885 23.2631 98.0213 22.7735C98.5562 22.2859 99.1014 21.8086 99.6589 21.3457C100.214 20.8828 100.782 20.4343 101.362 20.0002C101.941 19.5661 102.531 19.1444 103.13 18.7391C103.73 18.3338 104.339 17.9429 104.959 17.5664C105.578 17.1899 106.205 16.8299 106.841 16.4842C107.479 16.1407 108.123 15.8094 108.775 15.4967C109.429 15.184 110.088 14.8857 110.756 14.6059C111.423 14.324 112.098 14.0587 112.776 13.8118C113.457 13.5628 114.145 13.3324 114.836 13.1185C115.527 12.9045 116.224 12.707 116.924 12.5259C117.626 12.347 118.331 12.1844 119.041 12.0384C119.751 11.8923 120.463 11.7647 121.179 11.6536C121.894 11.5446 122.612 11.452 123.333 11.3759C124.053 11.2998 124.775 11.2422 125.497 11.2031C126.221 11.164 126.943 11.1414 127.667 11.1373C128.391 11.1331 129.116 11.1455 129.84 11.1784C130.562 11.2093 131.284 11.2586 132.006 11.3245C132.726 11.3924 133.446 11.4767 134.162 11.5775C134.88 11.6804 135.594 11.7997 136.304 11.9355C137.016 12.0733 137.724 12.2276 138.427 12.4005C139.131 12.5712 139.828 12.7605 140.524 12.9662C141.217 13.1719 141.906 13.3962 142.589 13.6348C143.272 13.8756 143.949 14.1327 144.62 14.4063C145.29 14.6779 145.955 14.968 146.611 15.2745C147.267 15.579 147.915 15.902 148.555 16.2394C149.197 16.5768 149.829 16.9286 150.452 17.2989C151.076 17.6672 151.689 18.0499 152.293 18.449C152.898 18.8481 153.493 19.2616 154.077 19.6895C154.661 20.1175 155.233 20.5598 155.797 21.0145C156.359 21.4712 156.91 21.9403 157.449 22.4237C157.988 22.9072 158.515 23.403 159.031 23.9112C159.546 24.4214 160.048 24.9419 160.537 25.4768C161.027 26.0096 161.502 26.5548 161.965 27.1124C162.428 27.6699 162.876 28.2377 163.312 28.8158C163.747 29.396 164.166 29.9844 164.574 30.5851C164.979 31.1838 165.37 31.7928 165.746 32.412C166.121 33.0313 166.483 33.6588 166.826 34.2945C167.172 34.9322 167.501 35.5762 167.816 36.2304C168.129 36.8826 168.425 37.543 168.707 38.2096C168.989 38.8761 169.252 39.5509 169.501 40.2319C169.748 40.9108 169.98 41.598 170.194 42.2892C170.408 42.9805 170.606 43.6779 170.785 44.3795C170.966 45.081 171.128 45.7846 171.274 46.4944C171.418 47.2042 171.548 47.916 171.657 48.6319C171.768 49.3479 171.861 50.0659 171.937 50.786C172.011 51.506 172.068 52.2281 172.108 52.9503C172.149 53.6744 172.171 54.3986 172.175 55.1207C172.18 55.8449 172.165 56.5691 172.134 57.2933C172.103 58.0174 172.054 58.7396 171.988 59.4596C171.92 60.1818 171.836 60.8998 171.733 61.6178C171.632 62.3337 171.513 63.0476 171.375 63.7594C171.239 64.4692 171.083 65.1769 170.912 65.8805C170.739 66.5841 170.552 67.2836 170.344 67.9769C170.139 68.6703 169.916 69.3595 169.676 70.0425C169.437 70.7255 169.18 71.4024 168.906 72.0731C168.633 72.7438 168.345 73.4083 168.038 74.0646C167.732 74.7208 167.411 75.3689 167.073 76.0108C166.736 76.6506 166.382 77.2822 166.014 77.9056C165.645 78.529 165.261 79.142 164.864 79.7469C164.465 80.3517 164.051 80.9463 163.623 81.5306C163.195 82.1149 162.753 82.6868 162.296 83.2505C161.841 83.8122 161.372 84.3635 160.889 84.9025C160.405 85.4416 159.91 85.9703 159.399 86.4846C158.891 86.9989 158.371 87.5009 157.836 87.9906C157.303 88.4802 156.758 88.9575 156.2 89.4204C155.643 89.8813 155.075 90.3298 154.495 90.7638C153.915 91.1979 153.326 91.6176 152.726 92.0229C152.127 92.4282 151.516 92.817 150.897 93.1935C150.279 93.568 149.65 93.928 149.014 94.2716C148.376 94.6172 147.732 94.9443 147.08 95.257C146.426 95.5718 145.768 95.8681 145.099 96.1479C144.432 96.4277 143.758 96.693 143.079 96.9399C142.398 97.1868 141.713 97.4172 141.019 97.6312C140.328 97.8451 139.633 98.0426 138.931 98.2216C138.23 98.4027 137.524 98.5631 136.814 98.7092C136.106 98.8553 135.395 98.9828 134.679 99.0919C133.963 99.203 133.245 99.2956 132.525 99.3696C131.805 99.4457 131.085 99.5013 130.36 99.5424C129.638 99.5815 128.914 99.6042 128.19 99.6083C127.468 99.6124 126.744 99.598 126.019 99.5671C125.297 99.5363 124.575 99.4869 123.853 99.419C123.133 99.3532 122.415 99.2688 121.697 99.1659C120.981 99.0651 120.267 98.9458 119.557 98.808C118.846 98.6722 118.138 98.5179 117.436 98.3451C116.733 98.1743 116.033 97.985 115.34 97.7793C114.644 97.5736 113.957 97.3514 113.274 97.1107C112.591 96.872 111.914 96.6149 111.244 96.3433C110.573 96.0697 109.909 95.7817 109.252 95.4751C108.596 95.1706 107.948 94.8497 107.308 94.5123C106.666 94.1749 106.035 93.8231 105.411 93.4548C104.788 93.0866 104.175 92.7039 103.57 92.3048C102.965 91.9077 102.37 91.4942 101.786 91.0663C101.202 90.6404 100.628 90.1981 100.066 89.7434C99.5026 89.2867 98.9512 88.8176 98.4122 88.3362C97.8732 87.8527 97.3445 87.3569 96.8301 86.8488C96.3137 86.3406 95.8118 85.8201 95.3221 85.2873C94.8325 84.7544 94.3552 84.2092 93.8923 83.6537Z" fill="#FFE8EE"/>
</g>
</g>
</g>
<mask id="mask17_1_1963" style="mask-type:luminance" maskUnits="userSpaceOnUse" x="90" y="13" width="43" height="26">
<path d="M90.0613 13.6266H132.195V38.907H90.0613V13.6266Z" fill="white"/>
</mask>
<g mask="url(#mask17_1_1963)">
<mask id="mask18_1_1963" style="mask-type:luminance" maskUnits="userSpaceOnUse" x="-21" y="-13" width="216" height="177">
<path d="M172.406 -12.9478L194.25 134.758L1.21793 163.305L-20.6267 15.5996L172.406 -12.9478Z" fill="white"/>
</mask>
<g mask="url(#mask18_1_1963)">
<mask id="mask19_1_1963" style="mask-type:luminance" maskUnits="userSpaceOnUse" x="-21" y="-13" width="216" height="177">
<path d="M172.406 -12.9478L194.25 134.758L1.21793 163.305L-20.6267 15.5996L172.406 -12.9478Z" fill="white"/>
</mask>
<g mask="url(#mask19_1_1963)">
<path d="M90.1541 35.7901C90.1541 35.7901 106.639 9.98512 129.976 14.6882C129.976 14.6882 134.395 17.3894 130.412 20.6235C128.677 20.3026 126.929 20.1586 125.168 20.1935C123.405 20.2285 121.662 20.4404 119.942 20.8293C118.224 21.2181 116.56 21.7756 114.955 22.5039C113.348 23.2322 111.832 24.1148 110.406 25.1517C103.85 29.9164 96.7272 36.0411 95.1842 37.8845C93.6392 39.7299 89.9093 37.977 90.1541 35.7901Z" fill="#FFE8EE"/>
</g>
</g>
</g>
<path d="M89.2735 78.3253L95.7788 86.1575L64.454 112.179L57.9487 104.346L89.2735 78.3253Z" fill="#FF7C7C"/>
<mask id="mask20_1_1963" style="mask-type:luminance" maskUnits="userSpaceOnUse" x="74" y="1" width="106" height="106">
<path d="M74.261 1.51312H179.069V106.321H74.261V1.51312Z" fill="white"/>
</mask>
<g mask="url(#mask20_1_1963)">
<mask id="mask21_1_1963" style="mask-type:luminance" maskUnits="userSpaceOnUse" x="-21" y="-13" width="216" height="177">
<path d="M172.406 -12.9478L194.25 134.758L1.21793 163.305L-20.6267 15.5996L172.406 -12.9478Z" fill="white"/>
</mask>
<g mask="url(#mask21_1_1963)">
<mask id="mask22_1_1963" style="mask-type:luminance" maskUnits="userSpaceOnUse" x="-21" y="-13" width="216" height="177">
<path d="M172.406 -12.9478L194.25 134.758L1.21793 163.305L-20.6267 15.5996L172.406 -12.9478Z" fill="white"/>
</mask>
<g mask="url(#mask22_1_1963)">
<path d="M166.738 20.601C166.193 19.9447 165.633 19.3028 165.057 18.6753C164.481 18.0478 163.89 17.4327 163.284 16.834C162.677 16.2353 162.057 15.6511 161.422 15.0832C160.788 14.5134 160.138 13.962 159.477 13.425C158.815 12.8881 158.14 12.3676 157.453 11.8635C156.764 11.3615 156.064 10.874 155.355 10.4049C154.643 9.93582 153.921 9.48321 153.186 9.04911C152.452 8.61707 151.709 8.2015 150.954 7.80238C150.201 7.40531 149.438 7.02677 148.664 6.66673C147.893 6.3067 147.111 5.96725 146.321 5.6463C145.533 5.3233 144.737 5.02293 143.932 4.73902C143.128 4.45717 142.317 4.19383 141.501 3.95313C140.682 3.71036 139.861 3.48817 139.032 3.2845C138.205 3.08288 137.372 2.90184 136.534 2.73931C135.699 2.57884 134.858 2.43688 134.014 2.31756C133.171 2.19823 132.325 2.09742 131.475 2.01925C130.626 1.94107 129.776 1.88346 128.924 1.84643C128.075 1.8094 127.221 1.795 126.369 1.79911C125.517 1.80528 124.666 1.82997 123.814 1.87729C122.964 1.92461 122.114 1.9925 121.267 2.08096C120.419 2.16943 119.574 2.27847 118.732 2.40808C117.889 2.53769 117.051 2.68787 116.216 2.86069C115.381 3.03145 114.55 3.22278 113.725 3.43468C112.9 3.64659 112.079 3.87906 111.266 4.13006C110.452 4.38311 109.643 4.65467 108.843 4.94681C108.042 5.23895 107.248 5.54961 106.464 5.88084C105.679 6.21207 104.901 6.56181 104.133 6.93007C103.364 7.30039 102.607 7.68717 101.856 8.09452C101.107 8.49981 100.369 8.92362 99.6403 9.36594C98.912 9.80826 98.194 10.2691 97.4883 10.7464C96.7827 11.2237 96.0894 11.7195 95.4084 12.2318C94.7254 12.742 94.0567 13.2707 93.4025 13.8159C92.7462 14.3611 92.1043 14.9207 91.4768 15.4968C90.8473 16.0728 90.2342 16.6633 89.6355 17.2702C89.0369 17.8771 88.4526 18.4963 87.8848 19.132C87.3149 19.7657 86.7615 20.4158 86.2266 21.0762C85.6896 21.7387 85.1691 22.4135 84.6651 23.1006C84.161 23.7898 83.6755 24.4893 83.2064 25.1991C82.7353 25.9109 82.2847 26.633 81.8506 27.3675C81.4165 28.102 81.001 28.8447 80.6039 29.5997C80.2068 30.3527 79.8283 31.1159 79.4683 31.8895C79.1082 32.661 78.7688 33.4428 78.4458 34.2328C78.1248 35.0207 77.8224 35.8169 77.5405 36.6213C77.2587 37.4257 76.9954 38.2363 76.7526 39.0531C76.5098 39.8698 76.2876 40.6928 76.086 41.5219C75.8844 42.3489 75.7013 43.1821 75.5408 44.0195C75.3783 44.8547 75.2384 45.6962 75.1191 46.5397C74.9977 47.3832 74.8989 48.2287 74.8208 49.0784C74.7426 49.926 74.685 50.7778 74.648 51.6295C74.6109 52.4792 74.5945 53.333 74.6006 54.1847C74.6047 55.0364 74.6315 55.8882 74.6788 56.7399C74.7241 57.5896 74.792 58.4392 74.8804 59.2868C74.9689 60.1345 75.0779 60.98 75.2096 61.8215C75.3392 62.665 75.4894 63.5023 75.6602 64.3376C75.8309 65.1728 76.0243 66.004 76.2362 66.829C76.4481 67.654 76.6806 68.4749 76.9316 69.2875C77.1846 70.1022 77.4562 70.9107 77.7483 71.711C78.0405 72.5113 78.3511 73.3054 78.6824 74.0893C79.0136 74.8752 79.3633 75.6528 79.7316 76.4202C80.0999 77.1897 80.4887 77.9468 80.894 78.6977C81.3013 79.4465 81.7251 80.1851 82.1675 80.9134C82.6098 81.6417 83.0706 82.3597 83.5479 83.0654C84.0252 83.771 84.521 84.4644 85.0313 85.1453C85.5435 85.8284 86.0723 86.497 86.6154 87.1512C87.1606 87.8075 87.7202 88.4494 88.2983 89.0769C88.8743 89.7064 89.4648 90.3195 90.0717 90.9182C90.6765 91.5169 91.2979 92.1011 91.9315 92.669C92.5672 93.2388 93.2153 93.7902 93.8777 94.3272C94.5402 94.8641 95.215 95.3846 95.9021 95.8887C96.5893 96.3927 97.2888 96.8782 98.0006 97.3473C98.7124 97.8184 99.4346 98.269 100.169 98.7031C100.901 99.1372 101.646 99.5527 102.399 99.9498C103.154 100.347 103.917 100.725 104.689 101.085C105.463 101.445 106.242 101.785 107.032 102.108C107.822 102.429 108.618 102.731 109.423 103.013C110.227 103.295 111.038 103.558 111.855 103.801C112.671 104.044 113.494 104.266 114.321 104.468C115.15 104.669 115.982 104.852 116.819 105.013C117.656 105.175 118.496 105.315 119.341 105.435C120.185 105.556 121.03 105.655 121.88 105.733C122.728 105.811 123.577 105.869 124.429 105.906C125.281 105.943 126.132 105.959 126.984 105.953C127.838 105.949 128.69 105.922 129.539 105.875C130.391 105.83 131.241 105.762 132.088 105.673C132.936 105.585 133.782 105.476 134.623 105.344C135.464 105.215 136.304 105.064 137.139 104.894C137.974 104.721 138.803 104.529 139.631 104.318C140.455 104.106 141.274 103.873 142.089 103.622C142.904 103.369 143.71 103.098 144.51 102.805C145.313 102.513 146.105 102.203 146.891 101.871C147.677 101.54 148.452 101.19 149.222 100.822C149.989 100.454 150.748 100.065 151.497 99.6597C152.246 99.2524 152.987 98.8286 153.715 98.3862C154.443 97.9439 155.159 97.4831 155.865 97.0058C156.573 96.5285 157.266 96.0327 157.947 95.5225C158.628 95.0102 159.296 94.4815 159.953 93.9383C160.609 93.3931 161.251 92.8315 161.878 92.2554C162.506 91.6794 163.119 91.0889 163.72 90.482C164.318 89.8772 164.903 89.2559 165.47 88.6222C166.038 87.9865 166.592 87.3384 167.129 86.676C167.666 86.0135 168.186 85.3387 168.69 84.6516C169.192 83.9644 169.68 83.2649 170.149 82.5531C170.618 81.8413 171.071 81.1191 171.505 80.3847C171.937 79.6523 172.352 78.9075 172.751 78.1545C173.148 77.3995 173.527 76.6362 173.887 75.8647C174.245 75.0912 174.586 74.3115 174.907 73.5215C175.23 72.7314 175.531 71.9353 175.815 71.1309C176.097 70.3264 176.358 69.5159 176.601 68.6991C176.843 67.8823 177.066 67.0594 177.269 66.2324C177.471 65.4033 177.652 64.5721 177.814 63.7348C177.975 62.8974 178.117 62.056 178.236 61.2125C178.355 60.369 178.456 59.5234 178.534 58.6738C178.613 57.8261 178.67 56.9765 178.707 56.1247C178.744 55.273 178.759 54.4213 178.755 53.5695C178.748 52.7158 178.724 51.864 178.676 51.0144C178.629 50.1626 178.561 49.313 178.473 48.4653C178.384 47.6177 178.275 46.7722 178.146 45.9307C178.016 45.0893 177.866 44.2499 177.693 43.4146C177.522 42.5793 177.331 41.7502 177.119 40.9232C176.907 40.0982 176.675 39.2794 176.424 38.4647C176.171 37.65 175.899 36.8435 175.607 36.0432C175.315 35.2409 175.004 34.4488 174.673 33.6629C174.342 32.877 173.992 32.1014 173.624 31.332C173.253 30.5646 172.867 29.8054 172.459 29.0566C172.054 28.3056 171.63 27.5671 171.188 26.8388C170.745 26.1105 170.285 25.3945 169.807 24.6889C169.33 23.9812 168.834 23.2878 168.322 22.6069C167.812 21.9259 167.283 21.2573 166.738 20.601ZM92.6413 82.1499C92.1784 81.5923 91.7299 81.0245 91.2958 80.4464C90.8617 79.8662 90.44 79.2778 90.0347 78.6771C89.6294 78.0784 89.2385 77.4674 88.862 76.8502C88.4855 76.2309 88.1255 75.6035 87.7798 74.9657C87.4342 74.33 87.105 73.684 86.7923 73.0318C86.4796 72.3796 86.1813 71.7192 85.9015 71.0527C85.6196 70.384 85.3543 69.7113 85.1074 69.0303C84.8584 68.3493 84.628 67.6643 84.4141 66.973C84.2001 66.2817 84.0026 65.5843 83.8215 64.8828C83.6426 64.1812 83.48 63.4756 83.334 62.7658C83.1879 62.0581 83.0603 61.3442 82.9492 60.6303C82.8381 59.9143 82.7456 59.1963 82.6715 58.4763C82.5954 57.7562 82.5378 57.0341 82.4987 56.3099C82.4575 55.5878 82.437 54.8636 82.4329 54.1394C82.4287 53.4153 82.4411 52.6911 82.4719 51.969C82.5049 51.2448 82.5522 50.5227 82.6201 49.8026C82.6859 49.0805 82.7703 48.3625 82.8731 47.6445C82.9739 46.9285 83.0933 46.2146 83.2311 45.5028C83.3689 44.791 83.5232 44.0853 83.694 43.3817C83.8668 42.6781 84.0561 41.9786 84.2618 41.2853C84.4675 40.5899 84.6897 39.9028 84.9304 39.2177C85.1691 38.5346 85.4263 37.8578 85.6999 37.1871C85.9735 36.5164 86.2615 35.854 86.5681 35.1977C86.8746 34.5414 87.1956 33.8933 87.533 33.2514C87.8704 32.6116 88.2242 31.98 88.5925 31.3567C88.9607 30.7333 89.3455 30.1181 89.7425 29.5133C90.1416 28.9105 90.5552 28.3159 90.9831 27.7317C91.411 27.1474 91.8533 26.5734 92.3101 26.0117C92.7647 25.448 93.2338 24.8987 93.7173 24.3576C94.2007 23.8186 94.6966 23.292 95.2068 22.7776C95.7149 22.2612 96.2354 21.7592 96.7703 21.2696C97.3032 20.78 97.8484 20.3047 98.4059 19.8418C98.9634 19.3789 99.5313 18.9304 100.109 18.4963C100.69 18.0602 101.278 17.6405 101.879 17.2352C102.477 16.8278 103.086 16.437 103.706 16.0625C104.325 15.686 104.952 15.326 105.59 14.9804C106.226 14.6347 106.87 14.3056 107.524 13.9929C108.176 13.6781 108.837 13.3818 109.503 13.1C110.172 12.8202 110.844 12.5548 111.525 12.3059C112.204 12.059 112.892 11.8286 113.583 11.6125C114.274 11.3986 114.971 11.2011 115.673 11.0221C116.375 10.841 117.08 10.6785 117.788 10.5324C118.498 10.3884 119.21 10.2588 119.925 10.1498C120.641 10.0387 121.359 9.94611 122.08 9.86998C122.8 9.79592 123.522 9.73832 124.246 9.69717C124.968 9.65808 125.692 9.63545 126.416 9.63133C127.141 9.62722 127.863 9.64162 128.587 9.67248C129.311 9.70334 130.033 9.75272 130.753 9.81855C131.475 9.88644 132.193 9.97079 132.911 10.0716C133.627 10.1745 134.341 10.2938 135.053 10.4316C135.763 10.5674 136.47 10.7217 137.174 10.8945C137.878 11.0653 138.577 11.2546 139.27 11.4603C139.966 11.6681 140.653 11.8903 141.336 12.131C142.019 12.3696 142.698 12.6268 143.367 12.9004C144.037 13.172 144.702 13.4621 145.358 13.7686C146.014 14.0731 146.662 14.3961 147.304 14.7335C147.944 15.0709 148.576 15.4227 149.199 15.791C149.822 16.1613 150.438 16.5439 151.04 16.9431C151.645 17.3422 152.24 17.7557 152.824 18.1836C153.408 18.6115 153.982 19.0518 154.544 19.5085C155.108 19.9653 155.657 20.4343 156.196 20.9178C156.737 21.4013 157.264 21.8971 157.778 22.4052C158.295 22.9155 158.797 23.436 159.286 23.9688C159.776 24.5037 160.251 25.0489 160.714 25.6064C161.177 26.1619 161.625 26.7318 162.059 27.3099C162.496 27.888 162.915 28.4785 163.321 29.0771C163.728 29.6779 164.119 30.2868 164.493 30.9061C164.87 31.5254 165.23 32.1528 165.575 32.7885C165.921 33.4263 166.25 34.0703 166.563 34.7224C166.878 35.3767 167.174 36.035 167.456 36.7036C167.736 37.3702 168.001 38.045 168.248 38.7239C168.497 39.4049 168.727 40.092 168.941 40.7833C169.157 41.4746 169.355 42.172 169.534 42.8715C169.715 43.573 169.877 44.2787 170.021 44.9885C170.167 45.6982 170.295 46.4101 170.406 47.126C170.517 47.842 170.61 48.56 170.684 49.28C170.76 50.0001 170.817 50.7222 170.857 51.4443C170.898 52.1685 170.918 52.8906 170.924 53.6148C170.929 54.339 170.914 55.0632 170.883 55.7873C170.852 56.5095 170.803 57.2316 170.735 57.9537C170.669 58.6738 170.585 59.3938 170.482 60.1098C170.381 60.8278 170.262 61.5417 170.124 62.2514C169.988 62.9633 169.832 63.671 169.661 64.3746C169.488 65.0782 169.301 65.7756 169.093 66.471C168.888 67.1643 168.665 67.8535 168.425 68.5366C168.186 69.2196 167.929 69.8965 167.655 70.5671C167.382 71.2378 167.094 71.9024 166.787 72.5586C166.483 73.2149 166.16 73.863 165.822 74.5028C165.485 75.1447 165.131 75.7763 164.763 76.3997C164.394 77.023 164.012 77.6361 163.613 78.241C163.214 78.8458 162.8 79.4404 162.372 80.0247C161.944 80.6089 161.502 81.1809 161.047 81.7446C160.591 82.3062 160.121 82.8576 159.638 83.3966C159.154 83.9356 158.659 84.4644 158.151 84.9787C157.64 85.493 157.12 85.995 156.585 86.4846C156.052 86.9743 155.507 87.4516 154.949 87.9145C154.392 88.3753 153.824 88.8238 153.244 89.2579C152.666 89.692 152.075 90.1117 151.477 90.517C150.876 90.9223 150.267 91.3111 149.648 91.6876C149.028 92.062 148.401 92.4221 147.763 92.7677C147.127 93.1113 146.481 93.4404 145.829 93.7532C145.177 94.0659 144.517 94.3621 143.85 94.644C143.181 94.9238 142.509 95.1871 141.828 95.4361C141.147 95.6829 140.462 95.9133 139.77 96.1273C139.079 96.3413 138.382 96.5388 137.68 96.7178C136.979 96.8968 136.275 97.0593 135.565 97.2053C134.855 97.3494 134.144 97.4769 133.428 97.588C132.712 97.6991 131.996 97.7917 131.276 97.8657C130.556 97.9398 129.834 97.9974 129.111 98.0386C128.387 98.0777 127.665 98.1003 126.941 98.1044C126.217 98.1085 125.493 98.0941 124.77 98.0632C124.046 98.0324 123.324 97.983 122.604 97.9151C121.884 97.8493 121.164 97.7649 120.448 97.6641C119.73 97.5613 119.016 97.4419 118.306 97.3041C117.595 97.1683 116.889 97.014 116.185 96.8412C115.482 96.6704 114.782 96.4812 114.089 96.2754C113.396 96.0697 112.706 95.8475 112.023 95.6068C111.34 95.3682 110.663 95.111 109.993 94.8394C109.322 94.5658 108.66 94.2778 108.003 93.9712C107.347 93.6668 106.697 93.3458 106.057 93.0084C105.417 92.671 104.784 92.3192 104.16 91.951C103.537 91.5827 102.924 91.2 102.319 90.8009C101.714 90.4038 101.12 89.9903 100.535 89.5624C99.951 89.1365 99.379 88.6942 98.8153 88.2395C98.2537 87.7828 97.7023 87.3137 97.1612 86.8323C96.6222 86.3489 96.0955 85.853 95.5791 85.3449C95.0648 84.8367 94.5608 84.3162 94.0711 83.7834C93.5815 83.2505 93.1042 82.7053 92.6413 82.1499Z" fill="white"/>
</g>
</g>
</g>
</svg>
