<svg width="98" height="188" viewBox="0 0 98 188" fill="none" xmlns="http://www.w3.org/2000/svg">
<path d="M46.6599 41.4786L69.9375 0.44458L77.2178 4.72275L53.9402 45.7545L46.6599 41.4786Z" fill="#7077B5"/>
<mask id="mask0_1_1543" style="mask-type:luminance" maskUnits="userSpaceOnUse" x="63" y="0" width="15" height="17">
<path d="M63.2266 0H77.7333V16.7212H63.2266V0Z" fill="white"/>
</mask>
<g mask="url(#mask0_1_1543)">
<path d="M77.2802 4.8325L70.759 16.1228C70.2308 17.0385 68.1477 16.83 66.11 15.6513C64.07 14.4749 62.846 12.7794 63.3764 11.8705L69.9021 0.573427C70.4326 -0.344575 72.5134 -0.133775 74.5511 1.04263C76.5911 2.21903 77.7992 3.91676 77.2802 4.8325Z" fill="#484D99"/>
</g>
<mask id="mask1_1_1543" style="mask-type:luminance" maskUnits="userSpaceOnUse" x="0" y="149" width="98" height="40">
<path d="M0 149.022H97.4849V188.007H0V149.022Z" fill="white"/>
</mask>
<g mask="url(#mask1_1_1543)">
<path d="M52.4394 149.473L0.351318 166.822V174.692L45.1747 188.007L97.4713 170.859V158.957L80.1064 150.28L52.4394 149.473Z" fill="#F3EEEB"/>
</g>
<path d="M67.7342 154.288L54.0359 150.983V144.804H67.7342V154.288Z" fill="#F196A4"/>
<path d="M55.0898 64.676V55.238L58.9843 55.6947C58.9843 55.6947 80.2502 81.3875 80.3395 81.6469C80.4287 81.9063 80.3395 101.602 80.3395 101.602L71.3997 99.7517V86.1226L60.9543 63.8795L55.0898 64.676Z" fill="#F3EEEB"/>
<path d="M70.8955 86.1686V100.548C70.8955 100.548 63.617 98.6448 59.8595 97.6316C58.5065 97.2645 57.6127 97.0205 57.6825 97.0205C57.7546 97.0205 57.7613 96.1328 57.7411 94.8106C57.6735 90.9323 57.3246 83.4126 57.3246 83.4126L48.7673 65.3199L60.6227 63.6677L70.8955 86.1686Z" fill="#F196A4"/>
<path d="M5.56494 101.074L42.9709 108.978L80.3791 101.074L42.5676 93.1719L5.56494 101.074Z" fill="#7077B5"/>
<path d="M42.4453 109.199V114.246L80.3792 106.645V101.602L42.4453 109.199Z" fill="#484D99"/>
<path d="M42.4451 109.199V114.246L5.56494 106.645V101.602L42.4451 109.199Z" fill="#484D99"/>
<path d="M43.1279 110.028C43.1072 110.033 43.0842 110.033 43.0612 110.028L10.0845 102.366C9.98336 102.354 9.9052 102.303 9.84543 102.211C9.78566 102.118 9.76727 102.019 9.78796 101.909C9.80865 101.799 9.86152 101.714 9.94888 101.656C10.0362 101.599 10.1282 101.587 10.2247 101.62L43.2221 109.268C43.321 109.291 43.3945 109.35 43.4474 109.442C43.498 109.537 43.5118 109.636 43.4865 109.744C43.4658 109.833 43.4221 109.905 43.3554 109.959C43.2865 110.012 43.2129 110.035 43.1279 110.028Z" fill="#F3EEEB"/>
<path d="M42.7794 113.193C42.6881 113.19 42.6101 113.156 42.5455 113.091C42.4809 113.026 42.4475 112.947 42.4453 112.854V108.699C42.4453 108.618 42.472 108.548 42.521 108.485C42.5723 108.424 42.6369 108.386 42.7148 108.368L74.6795 101.618C74.7731 101.588 74.8622 101.6 74.9468 101.649C75.0314 101.701 75.0827 101.776 75.1027 101.873C75.1228 101.97 75.1049 102.058 75.047 102.139C74.9891 102.22 74.9134 102.265 74.8154 102.277L43.1157 108.97V112.85C43.1157 112.944 43.0845 113.023 43.0177 113.091C42.9531 113.159 42.8729 113.193 42.7794 113.193Z" fill="#F3EEEB"/>
<path d="M70.8954 96.7605V99.4942L59.6876 97.0989H59.683L51.9285 95.4445L57.5324 94.2256L70.8954 96.7605Z" fill="#7077B5"/>
<path d="M57.1973 111.626V150.449L67.6718 147.819V154.288L80.3791 150.651V106.87L57.1973 111.626Z" fill="#F3EEEB"/>
<path d="M57.1974 150.073L42.4453 146.825V114.158L57.1974 111.085V150.073Z" fill="#F196A4"/>
<mask id="mask2_1_1543" style="mask-type:luminance" maskUnits="userSpaceOnUse" x="0" y="162" width="46" height="25">
<path d="M0 162.949H45.8185V186.74H0V162.949Z" fill="white"/>
</mask>
<g mask="url(#mask2_1_1543)">
<path d="M45.1745 186.332C45.0793 186.332 45 186.298 44.9343 186.232C44.8685 186.164 44.8368 186.085 44.8368 185.992V179.962L27.4764 172.582C27.3381 172.525 27.2701 172.421 27.2701 172.271V168.382L11.9996 164.243V168.121C11.9996 168.221 11.961 168.307 11.8862 168.373C11.8092 168.441 11.7208 168.47 11.621 168.457L0.314872 167.162C0.219672 167.151 0.144871 167.11 0.0859379 167.038C0.0270047 166.963 0.00433776 166.879 0.0134044 166.786C0.0247376 166.693 0.065538 166.618 0.140338 166.559C0.212871 166.5 0.296738 166.476 0.389672 166.487L11.3218 167.747V163.801C11.3218 163.749 11.3332 163.701 11.3581 163.654C11.3808 163.608 11.4125 163.567 11.4533 163.536C11.4941 163.504 11.5394 163.484 11.5916 163.472C11.6414 163.461 11.6913 163.461 11.7434 163.474L27.694 167.797C27.7688 167.817 27.8277 167.858 27.873 167.919C27.9206 167.981 27.9433 168.049 27.9433 168.126V172.049L45.3083 179.416C45.4465 179.475 45.5145 179.579 45.5145 179.731V185.983C45.5168 186.078 45.4851 186.159 45.4171 186.23C45.3513 186.298 45.2697 186.332 45.1745 186.332Z" fill="#202020"/>
</g>
<path d="M44.9267 179.576C44.8464 179.582 44.7752 179.563 44.7109 179.515C44.6053 179.449 44.5525 179.356 44.5525 179.235C44.5525 179.147 44.5846 179.072 44.6512 179.007C44.7178 178.945 44.7982 178.912 44.8946 178.912C44.9336 178.912 44.975 178.919 45.014 178.932C47.0231 178.706 75.6802 168.554 94.6801 161.68C94.7674 161.654 94.8524 161.659 94.935 161.695C95.0177 161.732 95.0751 161.792 95.1072 161.872C95.1394 161.951 95.1394 162.031 95.1049 162.111C95.0682 162.191 95.0108 162.247 94.9258 162.283C94.8018 162.326 82.4949 166.769 70.2523 171.097C63.0634 173.639 57.3048 175.643 53.1306 177.056C46.8486 179.184 45.3791 179.576 44.9267 179.576Z" fill="#202020"/>
<path d="M11.1758 163.771C11.0916 163.769 11.0191 163.74 10.9559 163.688C10.8905 163.635 10.853 163.57 10.839 163.49C10.825 163.409 10.839 163.335 10.8811 163.266C10.9232 163.197 10.984 163.148 11.0635 163.119L34.603 155.362C34.6942 155.331 34.7831 155.335 34.872 155.375C34.9585 155.416 35.017 155.478 35.0497 155.565C35.0801 155.652 35.0754 155.737 35.0333 155.82C34.9913 155.903 34.9258 155.961 34.8346 155.99L11.3068 163.749C11.2647 163.764 11.2226 163.771 11.1758 163.771Z" fill="#202020"/>
<path d="M28.028 167.986C27.8673 167.986 27.7625 167.912 27.7089 167.766C27.6822 167.683 27.6889 167.601 27.729 167.523C27.7692 167.446 27.8316 167.394 27.9164 167.366L76.7508 151.154C76.84 151.117 76.9293 151.117 77.0185 151.156C77.1077 151.195 77.168 151.258 77.1992 151.348C77.2304 151.437 77.2215 151.523 77.1769 151.606C77.1301 151.688 77.0609 151.742 76.9672 151.765L28.1373 167.971C28.1016 167.982 28.0659 167.986 28.028 167.986Z" fill="#202020"/>
<path d="M28.0274 172.201C27.9472 172.201 27.876 172.177 27.8137 172.126C27.7513 172.076 27.7135 172.012 27.6979 171.936C27.6845 171.859 27.6979 171.786 27.738 171.719C27.778 171.651 27.8359 171.603 27.9116 171.575L74.6817 155.36C74.7663 155.332 74.8487 155.336 74.9288 155.372C75.009 155.411 75.0647 155.469 75.0958 155.551C75.1203 155.633 75.1136 155.712 75.0758 155.787C75.0357 155.865 74.9756 155.918 74.8932 155.948L28.1387 172.182C28.1031 172.194 28.0653 172.201 28.0274 172.201Z" fill="#202020"/>
<path d="M12.9409 166.932V175.919L24.5318 179.577V170.186L12.9409 166.932Z" fill="#7077B5"/>
<path d="M55.0896 58.3992V65.9186C55.0896 65.9546 55.0602 65.9884 54.997 66.0267C54.1995 66.4774 48.4138 66.8289 41.3924 66.8289C34.3732 66.8289 28.583 66.4774 27.79 66.0267C27.7268 65.9884 27.6929 65.9546 27.6929 65.9186V58.3992C27.6929 58.9039 33.8287 59.3095 41.3924 59.3095C48.9583 59.3095 55.0896 58.9039 55.0896 58.3992Z" fill="#F3EEEB"/>
<path d="M55.0896 65.6633V65.7752H27.6929V65.6633C27.6929 65.1387 33.8252 64.7214 41.3901 64.7214C48.9572 64.7214 55.0896 65.1387 55.0896 65.6633Z" fill="#F3EEEB"/>
<path d="M57.1973 53.0174V58.5122C57.1973 58.5494 57.1584 58.5844 57.0875 58.6216C56.1705 59.0875 49.4882 59.4528 41.3903 59.4528C33.2925 59.4528 26.6079 59.0875 25.6955 58.6216C25.6223 58.5844 25.5857 58.5494 25.5857 58.5122V53.0174C25.5857 52.499 32.6613 52.0768 41.3949 52.0768C50.1308 52.0768 57.1973 52.499 57.1973 53.0174Z" fill="#484D99"/>
<path d="M62.4657 47.0889V53.2878L56.9935 54.1842V53.1287L45.5728 52.3846V53.6531L44.6811 53.7024L36.457 54.1842L22.4243 52.3846L22.7562 47.1763L23.4718 43.3619L39.8206 36.271L55.0723 37.7793L62.4657 47.0889Z" fill="#F3EEEB"/>
<path d="M44.5524 45.7545V53.7169L36.3759 54.1843L22.4243 52.4388L22.7543 47.387L36.4679 48.7651L44.5524 45.7545Z" fill="#F196A4"/>
<path d="M50.8749 62.614V70.227C50.3286 70.6833 46.319 71.0438 41.4591 71.0438C36.5992 71.0438 32.5849 70.6833 32.0386 70.227C32.0006 70.1997 31.9768 70.1632 31.9721 70.1175C31.9317 70.1426 31.9103 70.1791 31.908 70.227V62.614C31.908 63.1273 36.155 63.5357 41.3926 63.5357C46.6326 63.5357 50.8749 63.1273 50.8749 62.614Z" fill="#F3EEEB"/>
<path d="M41.0463 66.8289C35.7095 66.8289 29.257 66.724 28.8121 66.2273C28.7568 66.1636 28.736 66.0943 28.7521 66.0174C28.766 65.9425 28.8121 65.8806 28.8905 65.8356C29.0242 65.7551 29.1579 65.7551 29.2916 65.8356C29.4668 65.8975 30.9514 66.2648 41.0463 66.2648C51.9042 66.2648 53.4787 65.8356 53.5686 65.8075C53.6493 65.7813 53.73 65.7813 53.8106 65.8038C53.8913 65.8282 53.9536 65.8713 53.9951 65.9312C54.0389 66.0006 54.0481 66.0718 54.0204 66.1449C53.9904 66.2198 53.9351 66.2742 53.8498 66.3117C53.7438 66.3623 52.3237 66.8289 41.0463 66.8289Z" fill="#202020"/>
<path d="M69.5187 85.7865C69.4967 85.7912 69.4769 85.7912 69.4571 85.7865L57.4293 83.3171C57.3501 83.2916 57.2862 83.2404 57.2444 83.1637C57.2004 83.0869 57.1872 83.0056 57.2048 82.9172C57.2202 82.8288 57.262 82.7591 57.3281 82.7056C57.3963 82.6521 57.4711 82.6289 57.557 82.6359L69.5825 85.1052C69.6639 85.1261 69.73 85.1703 69.7784 85.2424C69.8268 85.3145 69.8488 85.3935 69.84 85.4819C69.8312 85.5703 69.796 85.6423 69.7344 85.7028C69.6749 85.7633 69.6023 85.7935 69.5187 85.7958V85.7865Z" fill="#202020"/>
<path d="M59.8331 145.858C59.686 145.858 59.5635 145.824 59.4585 145.757C59.357 145.689 59.3044 145.609 59.3044 145.513V114.587C59.3044 114.493 59.357 114.413 59.462 114.347C59.5635 114.278 59.686 114.246 59.8331 114.246C59.9766 114.246 60.0991 114.278 60.2041 114.347C60.3057 114.413 60.3582 114.493 60.3582 114.587V145.513C60.3582 145.609 60.3057 145.689 60.2041 145.757C60.0991 145.824 59.9766 145.858 59.8331 145.858Z" fill="#202020"/>
<path d="M75.1104 120.569V124.783H69.514C69.1202 124.783 68.7881 123.842 68.7881 122.677C68.7881 121.515 69.1159 120.569 69.514 120.569H75.1104Z" fill="#F196A4"/>
<path d="M80.3747 122.695C80.4313 124.907 79.9568 127.009 78.9562 129.003V131.106H76.1609C73.8376 131.106 71.9495 127.334 71.9495 122.678C71.9495 118.021 73.8376 114.246 76.1609 114.246H78.9562V116.37C79.8265 117.938 80.3747 120.185 80.3747 122.695Z" fill="#484D99"/>
<path d="M82.4866 122.678C82.4866 127.336 80.8365 131.106 78.7986 131.106C76.7607 131.106 75.1106 127.336 75.1106 122.678C75.1106 118.021 76.7607 114.246 78.7986 114.246C80.8365 114.246 82.4866 118.021 82.4866 122.678Z" fill="#7077B5"/>
<path d="M69.8419 138.482V141.643H64.2476C63.8516 141.643 63.5195 140.934 63.5195 140.062C63.5195 139.19 63.8452 138.482 64.2476 138.482H69.8419Z" fill="#F196A4"/>
<path d="M77.2181 136.374V143.75H70.0534C69.8306 143.75 69.6125 143.725 69.3944 143.679C69.1786 143.632 68.9675 143.561 68.7635 143.468C68.5571 143.376 68.3648 143.263 68.1795 143.129C67.9966 142.993 67.8254 142.842 67.6683 142.67C67.5111 142.498 67.3728 142.313 67.2485 142.111C67.1265 141.91 67.0233 141.697 66.9389 141.474C66.8521 141.251 66.7888 141.02 66.7466 140.781C66.702 140.545 66.6809 140.304 66.6809 140.062C66.6809 139.821 66.702 139.58 66.7466 139.344C66.7888 139.105 66.8521 138.874 66.9389 138.651C67.0233 138.428 67.1265 138.215 67.2485 138.014C67.3728 137.812 67.5111 137.627 67.6683 137.455C67.8254 137.286 67.9966 137.132 68.1795 136.998C68.3648 136.862 68.5571 136.749 68.7635 136.657C68.9675 136.564 69.1786 136.493 69.3944 136.446C69.6125 136.4 69.8306 136.374 70.0534 136.374H77.2181Z" fill="#484D99"/>
<path d="M80.379 139.624C80.3722 139.829 80.3474 140.033 80.2999 140.234C80.2547 140.435 80.1914 140.63 80.1078 140.82C80.0242 141.007 79.9224 141.186 79.8026 141.356C79.6851 141.523 79.5495 141.679 79.4003 141.822C79.2511 141.964 79.0907 142.091 78.9166 142.201C78.7426 142.312 78.5595 142.405 78.3674 142.479C78.1753 142.554 77.9764 142.611 77.7729 142.647C77.5718 142.683 77.3661 142.699 77.1604 142.697C76.9525 142.692 76.749 142.667 76.5479 142.624C76.3467 142.581 76.1501 142.518 75.9602 142.437C75.7726 142.353 75.5918 142.253 75.4223 142.138C75.2527 142.02 75.0968 141.887 74.9521 141.74C74.8075 141.591 74.6809 141.43 74.5679 141.258C74.4549 141.087 74.3599 140.903 74.2831 140.711C74.2062 140.521 74.1497 140.322 74.1113 140.121C74.0729 139.918 74.0548 139.714 74.0571 139.508C74.0593 139.3 74.0797 139.097 74.1226 138.896C74.1633 138.692 74.2243 138.498 74.3057 138.308C74.3848 138.118 74.4843 137.937 74.5995 137.765C74.7148 137.595 74.8459 137.437 74.9928 137.292C75.1397 137.145 75.298 137.017 75.4697 136.904C75.6415 136.788 75.8223 136.693 76.0145 136.614C76.2043 136.535 76.401 136.476 76.6044 136.436C76.8055 136.395 77.0112 136.374 77.2169 136.374C77.4271 136.379 77.6351 136.402 77.8407 136.447C78.0464 136.49 78.2476 136.553 78.4397 136.637C78.6341 136.72 78.8172 136.822 78.989 136.94C79.163 137.06 79.3235 137.195 79.4704 137.347C79.6173 137.496 79.7461 137.661 79.8614 137.837C79.9767 138.014 80.0716 138.199 80.1507 138.394C80.2276 138.59 80.2863 138.792 80.3248 138.997C80.3632 139.205 80.3813 139.413 80.379 139.624Z" fill="#7077B5"/>
<path d="M51.9286 143.75V155.965C51.9264 156.031 51.9039 156.088 51.8658 156.141C51.35 156.873 47.5647 157.449 42.9765 157.449C38.3883 157.449 34.5984 156.873 34.0782 156.141C34.0378 156.088 34.0176 156.031 34.0154 155.965V143.75C34.0154 144.566 38.025 145.234 42.9765 145.234C47.9257 145.234 51.9286 144.571 51.9286 143.75Z" fill="#484D99"/>
<path d="M15.0483 108.978V113.295C15.0483 113.295 29.2263 115.82 34.0153 112.643L15.0483 108.978Z" fill="#484D99"/>
<path d="M51.9286 143.228C51.9264 143.296 51.9062 143.358 51.8658 143.409C51.3456 144.194 47.5647 144.804 42.972 144.804C38.3793 144.804 34.5984 144.194 34.0782 143.409C34.0378 143.358 34.0176 143.296 34.0154 143.228C34.0154 142.357 38.025 141.643 42.972 141.643C47.919 141.643 51.9286 142.352 51.9286 143.228Z" fill="#7077B5"/>
<path d="M50.8751 136.374V143.893C50.8706 143.936 50.8524 143.973 50.8206 144.002C50.3613 144.451 47.026 144.804 42.9768 144.804C38.9276 144.804 35.5832 144.451 35.1239 144.002C35.0898 143.973 35.0716 143.936 35.0693 143.893V136.374C35.0693 136.883 38.607 137.288 42.9768 137.288C47.3466 137.288 50.8751 136.864 50.8751 136.374Z" fill="#484D99"/>
<path d="M50.8751 136.373C50.8729 136.426 50.8547 136.468 50.8206 136.502C50.3613 137.023 47.026 137.428 42.9722 137.428C38.9185 137.428 35.5832 137.023 35.1239 136.502C35.0898 136.468 35.0716 136.426 35.0693 136.373C35.0693 135.794 38.607 135.321 42.9722 135.321C47.3375 135.321 50.8751 135.773 50.8751 136.373Z" fill="#7077B5"/>
<path d="M48.7674 135.843C48.7674 135.843 48.7674 135.886 48.7242 135.908C48.3578 136.168 45.6859 136.374 42.4428 136.374C39.1998 136.374 36.5325 136.168 36.166 135.908C36.1365 135.908 36.1228 135.866 36.1228 135.843C36.1228 135.555 38.9517 135.321 42.4542 135.321C45.959 135.321 48.7674 135.535 48.7674 135.843Z" fill="#F3EEEB"/>
<path d="M49.8213 77.366L23.4783 72.6857L26.0504 68.6502C26.0504 68.6502 26.4582 66.923 37.2603 68.6502C48.0624 70.3797 48.7082 71.8699 48.7082 71.8699L49.8213 77.366Z" fill="#484D99"/>
<path d="M49.8099 77.7259C49.5085 80.1192 43.1324 81.1818 35.5748 80.1098C28.015 79.0379 22.134 76.2228 22.4354 73.8412C22.739 71.4619 29.1129 70.3853 36.6727 71.4619C44.2303 72.5362 50.1114 75.3373 49.8099 77.7259Z" fill="#7077B5"/>
<path d="M47.7137 80.3759V93.1719H41.3914V80.3759C41.3914 79.8766 42.8056 79.4735 44.5525 79.4735C46.2995 79.4735 47.7137 79.8766 47.7137 80.3759Z" fill="#F3EEEB"/>
<path d="M47.7137 92.6457C47.7137 92.9362 46.295 93.1719 44.5525 93.1719C42.8101 93.1719 41.3914 92.9362 41.3914 92.6457C41.3914 92.3565 42.8056 92.1182 44.5525 92.1182C46.2995 92.1182 47.7137 92.3538 47.7137 92.6457Z" fill="#F196A4"/>
<path d="M46.6602 93.1692C46.6602 93.7549 45.7184 94.2256 44.5528 94.2256C43.3871 94.2256 42.4453 93.7549 42.4453 93.1692C42.4453 92.5835 43.3871 92.1182 44.5528 92.1182C45.7184 92.1182 46.6602 92.5889 46.6602 93.1692Z" fill="#F3EEEB"/>
<path d="M46.6602 93.1719L46.1659 94.2256H42.9396L42.4453 93.1719H46.6602Z" fill="#F3EEEB"/>
<path d="M46.6602 94.2229C46.6602 94.8086 45.7171 95.2793 44.5528 95.2793C43.3884 95.2793 42.4453 94.7819 42.4453 94.2229C42.4453 93.6613 43.3884 93.1719 44.5528 93.1719C45.7171 93.1719 46.6602 93.6426 46.6602 94.2229Z" fill="#F196A4"/>
<path d="M43.4989 76.6579V94.2256H34.0154V76.6579C34.0154 75.8858 36.1365 75.2586 38.7528 75.2586C41.3692 75.2586 43.4989 75.8835 43.4989 76.6579Z" fill="#F3EEEB"/>
<path d="M43.4989 94.2256C43.4989 94.808 41.3778 95.2793 38.7571 95.2793C36.1365 95.2793 34.0154 94.808 34.0154 94.2256C34.0154 93.6432 36.1408 93.1719 38.7571 93.1719C41.3735 93.1719 43.4989 93.6432 43.4989 94.2256Z" fill="#F196A4"/>
<path d="M42.4454 94.7525C42.4454 94.8549 42.4215 94.96 42.3737 95.0599C42.3259 95.1623 42.2564 95.2622 42.1629 95.357C42.0717 95.4544 41.9587 95.544 41.824 95.6311C41.6893 95.7182 41.535 95.7976 41.3656 95.8694C41.1939 95.9437 41.0071 96.0103 40.805 96.0666C40.6052 96.1255 40.3923 96.1742 40.1685 96.2126C39.9447 96.2536 39.7144 96.2818 39.4754 96.3023C39.2386 96.3228 38.9996 96.333 38.7563 96.333C38.5151 96.333 38.2761 96.3228 38.0371 96.3023C37.8003 96.2818 37.57 96.2536 37.3462 96.2126C37.1225 96.1742 36.9095 96.1255 36.7075 96.0666C36.5076 96.0103 36.3208 95.9437 36.1491 95.8694C35.9775 95.7976 35.8254 95.7182 35.6907 95.6311C35.556 95.544 35.443 95.4544 35.3496 95.357C35.2584 95.2622 35.1867 95.1623 35.141 95.0599C35.0932 94.96 35.0693 94.8549 35.0693 94.7525C35.0693 94.6474 35.0932 94.545 35.141 94.445C35.1867 94.3426 35.2584 94.2427 35.3496 94.1479C35.443 94.0505 35.556 93.9609 35.6907 93.8738C35.8254 93.7867 35.9775 93.7073 36.1491 93.633C36.3208 93.5613 36.5076 93.4947 36.7075 93.4383C36.9095 93.3794 37.1225 93.3307 37.3462 93.2923C37.57 93.2513 37.8003 93.2205 38.0371 93.2026C38.2761 93.1821 38.5151 93.1719 38.7563 93.1719C38.9996 93.1719 39.2386 93.1821 39.4754 93.2026C39.7144 93.2205 39.9447 93.2513 40.1685 93.2923C40.3923 93.3307 40.6052 93.3794 40.805 93.4383C41.0071 93.4947 41.1939 93.5613 41.3656 93.633C41.535 93.7073 41.6893 93.7867 41.824 93.8738C41.9587 93.9609 42.0717 94.0505 42.1629 94.1479C42.2564 94.2427 42.3259 94.3426 42.3737 94.445C42.4215 94.545 42.4454 94.6474 42.4454 94.7525Z" fill="#F3EEEB"/>
<path d="M42.4454 95.2793L41.579 96.333H35.9357L35.0693 95.2793H42.4454Z" fill="#F3EEEB"/>
<path d="M41.3914 96.8599C41.3914 96.9623 41.3732 97.0674 41.3408 97.1673C41.3063 97.2698 41.2557 97.3697 41.1909 97.4644C41.124 97.5618 41.043 97.6514 40.9478 97.7385C40.8506 97.8256 40.7412 97.9051 40.6196 97.9768C40.4961 98.0511 40.3644 98.1177 40.2206 98.174C40.0768 98.233 39.9249 98.2816 39.7648 98.3201C39.6048 98.361 39.4407 98.3892 39.2706 98.4097C39.1004 98.4302 38.9303 98.4405 38.7561 98.4405C38.5839 98.4405 38.4117 98.4302 38.2436 98.4097C38.0735 98.3892 37.9094 98.361 37.7494 98.3201C37.5893 98.2816 37.4374 98.233 37.2936 98.174C37.1498 98.1177 37.0161 98.0511 36.8946 97.9768C36.771 97.9051 36.6636 97.8256 36.5664 97.7385C36.4712 97.6514 36.3902 97.5618 36.3233 97.4644C36.2565 97.3697 36.2079 97.2698 36.1734 97.1673C36.139 97.0674 36.1228 96.9623 36.1228 96.8599C36.1228 96.7548 36.139 96.6524 36.1734 96.5499C36.2079 96.45 36.2565 96.3501 36.3233 96.2553C36.3902 96.158 36.4712 96.0683 36.5664 95.9812C36.6636 95.8941 36.771 95.8147 36.8946 95.7404C37.0161 95.6687 37.1498 95.6021 37.2936 95.5457C37.4374 95.4868 37.5893 95.4381 37.7494 95.3997C37.9094 95.3587 38.0735 95.328 38.2436 95.3075C38.4117 95.2895 38.5839 95.2793 38.7561 95.2793C38.9303 95.2793 39.1004 95.2895 39.2706 95.3075C39.4407 95.328 39.6048 95.3587 39.7648 95.3997C39.9249 95.4381 40.0768 95.4868 40.2206 95.5457C40.3644 95.6021 40.4961 95.6687 40.6196 95.7404C40.7412 95.8147 40.8506 95.8941 40.9478 95.9812C41.043 96.0683 41.124 96.158 41.1909 96.2553C41.2557 96.3501 41.3063 96.45 41.3408 96.5499C41.3732 96.6524 41.3914 96.7548 41.3914 96.8599Z" fill="#F196A4"/>
<path d="M30.7231 80.0503L18.784 91.9865C18.2554 92.5108 16.3152 91.4209 14.4468 89.5675C12.5784 87.7119 11.4843 85.7563 12.0259 85.232L23.9499 73.2828C24.4741 72.7585 26.4143 73.8484 28.2827 75.704C30.1511 77.5574 31.2473 79.5261 30.7231 80.0503Z" fill="#F3EEEB"/>
<path d="M12.9409 85.7959L12.3139 86.8496C11.5824 86.4769 11.7914 86.1256 12.9409 85.7959Z" fill="#F196A4"/>
<path d="M18.2095 91.0645C17.8825 92.1969 17.5264 92.4092 17.1558 91.7368L18.2095 91.0645Z" fill="#F196A4"/>
<path d="M18.1422 91.8273L17.7818 91.8745L16.5418 92.0311C16.1914 92.3816 14.8868 91.6433 13.6244 90.3806C12.362 89.1204 11.6239 87.8155 11.9743 87.465L12.1309 86.2247L12.1756 85.8618C12.526 85.5163 14.1487 86.5628 15.7938 88.2107C17.4414 89.8612 18.4926 91.4793 18.1422 91.8273Z" fill="#F196A4"/>
<path d="M47.7137 101.074C47.7137 101.179 47.6806 101.282 47.612 101.383C47.5457 101.486 47.4462 101.584 47.3136 101.68C47.181 101.775 47.0174 101.866 46.8251 101.954C46.6328 102.039 46.4162 102.12 46.1708 102.193C45.9255 102.266 45.6602 102.331 45.3728 102.389C45.0855 102.447 44.7804 102.494 44.4621 102.535C44.1416 102.575 43.8123 102.605 43.4719 102.625C43.1337 102.645 42.791 102.655 42.444 102.655C42.0992 102.655 41.7566 102.645 41.4162 102.625C41.078 102.605 40.7486 102.575 40.4281 102.535C40.1098 102.494 39.8047 102.447 39.5174 102.389C39.23 102.331 38.9648 102.266 38.7194 102.193C38.474 102.12 38.2552 102.039 38.0651 101.954C37.8728 101.866 37.7092 101.775 37.5766 101.68C37.444 101.584 37.3445 101.486 37.2782 101.383C37.2097 101.282 37.1765 101.179 37.1765 101.074C37.1765 100.97 37.2097 100.867 37.2782 100.767C37.3445 100.664 37.444 100.566 37.5766 100.47C37.7092 100.374 37.8728 100.284 38.0651 100.196C38.2552 100.11 38.474 100.03 38.7194 99.9569C38.9648 99.884 39.23 99.8186 39.5174 99.7608C39.8047 99.7029 40.1098 99.6552 40.4281 99.6149C40.7486 99.5747 41.078 99.5445 41.4162 99.5244C41.7566 99.5043 42.0992 99.4942 42.444 99.4942C42.791 99.4942 43.1337 99.5043 43.4719 99.5244C43.8123 99.5445 44.1416 99.5747 44.4621 99.6149C44.7804 99.6552 45.0855 99.7029 45.3728 99.7608C45.6602 99.8186 45.9255 99.884 46.1708 99.9569C46.4162 100.03 46.6328 100.11 46.8251 100.196C47.0174 100.284 47.181 100.374 47.3136 100.47C47.4462 100.566 47.5457 100.664 47.612 100.767C47.6806 100.867 47.7137 100.97 47.7137 101.074Z" fill="#F3EEEB"/>
<path d="M36.4946 45.7493H36.4404L25.8852 44.0248C25.7886 44.0097 25.7109 43.9595 25.6544 43.8765C25.5979 43.7936 25.5744 43.7005 25.5908 43.5975C25.605 43.4944 25.6497 43.414 25.7298 43.3511C25.8075 43.2908 25.8946 43.2682 25.9888 43.2833L36.4711 44.9876L52.5453 39.4448C52.6348 39.4196 52.7196 39.4322 52.802 39.4825C52.882 39.5302 52.9362 39.6006 52.9644 39.6961C52.9927 39.7891 52.988 39.8822 52.9479 39.9726C52.9079 40.0606 52.8443 40.1235 52.7596 40.1612L36.5982 45.7518C36.5629 45.7568 36.5276 45.7543 36.4946 45.7493Z" fill="#202020"/>
<path d="M57.9039 51.023C57.8069 51.0251 57.726 50.9939 57.6591 50.9336C57.5898 50.8734 57.5551 50.8006 57.5551 50.7154V47.247L54.1068 43.0907C54.049 43.0221 54.0259 42.9452 54.0398 42.86C54.0537 42.7748 54.0975 42.7062 54.1761 42.6563C54.2523 42.6044 54.3377 42.5857 54.4324 42.5961C54.5271 42.6086 54.6034 42.6501 54.6588 42.7166L58.181 46.954C58.2272 47.0101 58.248 47.0724 58.2503 47.1389V50.6946C58.255 50.784 58.2226 50.8609 58.1556 50.9253C58.0863 50.9918 58.0032 51.023 57.9039 51.023Z" fill="#202020"/>
</svg>
